<?xml version="1.0" encoding="utf-8"?>
<!-- Generator: Adobe Illustrator 21.1.0, SVG Export Plug-In . SVG Version: 6.00 Build 0)  -->
<svg version="1.1" id="Calque_1" xmlns="http://www.w3.org/2000/svg" xmlns:xlink="http://www.w3.org/1999/xlink" x="0px" y="0px"
	 viewBox="0 0 432 432" style="enable-background:new 0 0 432 432;" xml:space="preserve">
<style type="text/css">
	.st0{fill:#C14148;}
	.st1{fill:#E28A6B;}
	.st2{fill:#373636;}
	.st3{fill:#3A6A52;}
	.st4{fill:#9B1917;}
	.st5{fill:#B298C8;}
	.st6{fill:#F39EA0;}
	.st7{fill:#C1944E;}
	.st8{fill:#F3B04B;}
	.st9{fill:#A5B449;}
	.st10{fill:#EC6284;}
	.st11{fill:#951B81;}
	.st12{fill:#A3195B;}
	.st13{fill:#9BC66B;}
	.st14{fill:#5FB157;}
	.st15{fill:#FFFFFF;}
	.st16{fill:#3F914D;}
	.st17{fill:#D53B87;}
	.st18{fill:#A6A8AA;}
	.st19{fill:#C8ACA0;}
	.st20{fill:#E6939F;}
	.st21{fill:#7A8D9F;}
	.st22{fill:#939D3C;}
	.st23{fill:#2A9798;}
	.st24{fill:#6595A9;}
	.st25{fill:#3C3C3B;}
</style>
<g>
	<g>
		<path class="st0" d="M103.7,111.7c-7.9-0.2-2.7,5.1-13.3,20.3c-14,20-9.2,11.5,3.2,24.5c12.4,13,13.8,27.1,26.6,32.4
			c12.1,5.1,24.7,13.5,28.5,9.9c-2.1-1.5-3.5-3.5-4.9-5.5c-8.8-13.7-20.2-16.5-20.4-27.6c0-1.9,0.4-0.4-7.1-4.4
			c-15.7-8.5-3.2-36.1-2.4-43c0.3-2.4,0.4-4.8,1.1-7.2C114.9,110.9,107.8,111.8,103.7,111.7z"/>
		<path class="st0" d="M182.8,145.3c1.9,0.5,11.4-12.3,6-29c-0.5-1.4-1.2-2.7-2.4-3.6c-5.4-3.9-2.4-12-13.9-14.1
			c0.3,0.4,0.7,0.6,1,0.9c16.6,13.5,1.6,30.5,6,34.9C185.2,140.1,182,144.2,182.8,145.3z"/>
		<path class="st0" d="M144.5,167.9c0.3,0.6,2-0.4,2.7-0.8c6.3-3.4,46.3-12.7,27.2-32c-2.4-2.5-4.4-4.5-9,5.4
			c-4.2,9-7.9,4.2-18.5,10.9c-9.5,6-20.1,1-18,5.3C130.7,160,141,161.4,144.5,167.9z"/>
		<path class="st0" d="M133.9,125.7c-0.7,4.5-0.8,8.9-0.2,13.4c1.1,0,8.4-2.1,10.2-7c-1-0.5-1.9-1-2.9-1.4
			C137.3,129.3,133.9,125.7,133.9,125.7z"/>
		<path class="st0" d="M156.8,132.6c-0.8-1.1-2-11.6-3.6-12.8c-1,5.9-4.4,10.6-7.4,15.6C153.1,135.3,157.6,133.7,156.8,132.6z"/>
		<path class="st0" d="M159.3,127.1c1.2-0.7,2.6-14.9-6.1-17.2c-4-1.1-18.3-0.2-19.1,7c7.5-4.8,10,6.3,6,2.2
			c-1.1-1.1-2.6-2.4-3.8-0.6c-2.1,3.1,0.1,6,3.1,8.3c2.5-9.4,7.2-3.6,8.3-3.2c0.8-1.8,1.5-4.4,1.6-6.3c0.8-8.4-5.5-1.1-6.6-0.5
			C135,120.9,153,95.3,159.3,127.1z"/>
		<path class="st0" d="M143.4,124c-0.6,0.9-2.1,4.2-1.2,4.6c0.9,0.4,1.8,0.8,2.8,1.3C146.3,127.2,147.6,126.3,143.4,124z"/>
		<path class="st0" d="M160.5,130.9c5.4-2,5.3-1.4,7.6-1.1c1-5.1-2.2-35.3-21.8-26.5c-5.5,2.5-8.1,1.6-11.1,2.4
			c-2.4,0.6-5.3,3-4.8,5.4c5.9-4.8,10-4.9,12.9-3.6c2.4,1,3.7-0.5,9.6,0.3c7,1,11.3,6.6,10.6,13.6C163,127,160.7,129.8,160.5,130.9z
			"/>
		<path class="st0" d="M130.4,139.3c0-2.2-0.8-8.1,1-16c0.4-1.7-2.9-8.5,5.6-13.5c-1-0.5-5.6,4-9,5.9
			C114,123.7,127.1,140.3,130.4,139.3z"/>
		<path class="st0" d="M127.4,153.3c4.8-2.7,10.9-0.4,16.3-2.8c22-9.9,13.7-3.5,23.6-17.7c-3-3.7-11,5.8-19.9,4.9
			c-6.2-0.6-3.4,1-18.1,5.1C125,144.2,126.2,149.1,127.4,153.3z"/>
		<path class="st0" d="M118.5,105c1.1-0.3,7.2-7.6,14.5-2.3c0.4,0.3,0.8,0.4,1.2,0.2c3.6-1.1,6.3-0.5,8.6-1
			c4.6-0.9,8.5-2.9,13.6-2.3c20.6,2.4,11.7,24.1,14.1,30.6c2.6-0.3,2.4-0.1,4.7,0.8c1.2-7.6,6.6-21.7-2.7-28.9
			c-4.8-3.7-6.9-3.3-11.3-7.3c-10.8-9.9-6-5-30.2-1.6c-1.7,0.2-3.5,0.5-5.2,0.8C119.2,95.5,117.9,103.9,118.5,105z"/>
		<path class="st0" d="M112.9,149.4c2.8,7.6,6.5,9.4,12.4,12.9c10.2,6.1,13.3,6,16.1,6c-2.7-3.6-15.4-6.9-15.4-12.2
			c0-1.1-5.7-11.6,1-14.9c0.3-0.1,0.6-0.2,0.8-0.5c-11.6-7.7-13.2-19-1.5-26.3c3.6-2.3-1.2-4,5-10.1c-7-5.1-11.7,10-13,12.5
			C113.8,125,109.4,139.9,112.9,149.4z"/>
		<path class="st0" d="M180.8,150.5c0,0-4.9,8.8-22.3,14.8c-12.1,4.1-14.8,9.1-31.1,1c0.2,4.4,12.6,15.5,18.4,24.3
			c9.8,14.8,11-1.8,29,0.1c6.4,0.7,2.5,1.6,4.2-8.7C180.5,173.8,186.6,161.7,180.8,150.5z"/>
		<path class="st0" d="M202.8,157.9c4.8-33.7,16.2-42.1-14.5-62.2c-0.4-0.3-0.8-0.5-1.3-0.6c0,0.2,0,0.3,0,0.5
			c6.2,19.1,3.9,1.1,6.5,24.5c0.6,5.4-0.6,19.9-8,25.9c-2.7,2.1-3.4,2.1-2.5,3.1c8.1,9.9-1.9,28.2-1.5,36.4
			C191.6,179.4,199.7,179.9,202.8,157.9z"/>
		<path class="st0" d="M141.6,81.8c-0.2,0.2-11.4,8.7-11.4,9c0.1,0.2,0.3,0.1,0.4,0.1c19.4-1.7,23.9-10.2,36.1,2.3
			c1.6,1.6,8.8,3.4,9.9,3.7c5.3,1.4,6.8,2.8,8.5,4.2C183.5,80.8,158,68.8,141.6,81.8z"/>
		<path class="st0" d="M93.5,116.4c4.7-9,7.8-6.1,17.2-7.3c0.3,0,3.2-0.2,3.4-0.5c-2-5.5,1.7-16,11.2-17.1c0.8-0.1,1.5-1.5,2.9-2.8
			c9-8.6,10.5-10.3,18.7-13.4c-3.8-3.4-7.2-4.8-14.6-3.9c-19.5,2.5-15-6.6-19.3,1.8c-2.6,5-3.6,8.6-7.1,13.9
			C98,98.7,89.5,107.4,93.5,116.4z"/>
		<path class="st0" d="M79.3,143.9C80,142.5,93,121,91.7,119.7c-4.1-4.2-2.3-12.2,0.2-17.8c-1.1-0.1-11.3,6.6-15.9,15.6
			c-2.3,4.5-6.8,7.2-6.8,7.2c15.3,15.5,1.5,27.2,16.3,38.5c4.2,3.2,3.5,2.1,6.7-0.5C82.3,150.5,77.1,148.7,79.3,143.9z"/>
		<path class="st0" d="M183.2,187.9c-2.3,1.2-1.8,0.5-1.7,4c0.1,1.3-1.2,1.8-2.5,1.8c-20-1.4-15.3,4.5-24.9,6
			c-3.5,0.5-2.5,1-3.6,1.5c-12.1,5.5-14.2-2.6-35.2-12.4c-10.6-4.9-18.5-21.1-20.9-23.1c-2.5,1.3-7.7,17.9,5.2,33.1
			c15.6,18.3,21.9,24.7,24.2,32c0.3-0.1,0.5,0,1.5-0.5c17.6-8.2,50.1-2.5,57.8-41.8C183.3,188.4,183.3,188.2,183.2,187.9z"/>
		<path class="st0" d="M223.8,132.8c-1.9,4.4-4.2,8.1-8.8,11.3c-7,4.9-8,4.3-8.3,6c-1.7,11.3-3.3,26.7-14.8,33.7
			c-8,4.8-4.5,0.3-6.5,8.1c-3.1,12.3-5.2,11.2-2.9,12c30.1,10.8,51.8-17.9,54.2-23.7c1.5-3.8,1.3-7.4-0.8-10.9
			C223.5,149.4,231.4,142.5,223.8,132.8z"/>
		<path class="st0" d="M234.8,120.7c-14.3-22-5.3-31.7-21.6-33c-1.5,7.7,13.1,23.3,11.4,41.4c-0.1,0.5,0.1,0.7,0.5,0.9
			c11.3,5.3,6.8,21.9,8.3,28.9C236.5,158.3,245.5,137.1,234.8,120.7z"/>
		<path class="st0" d="M160.4,74.1c17.7,1.9,26.7,18.7,25.6,18.2c0,0,5.1,2.3,5.5,2.6c33.7,21.5,15.8,43,16,51.6
			c31.6-25.1,2.7-40.8-1.1-63.4c-2.9-17.6-4-18.7-10.4-16.8c-13,3.9-19.8,6.3-29.8,1.5c-9.9-4.8-13.5-4.1-22.4,1.9
			c1.4,0.8,2.7,1.6,3.8,2.6C152.2,76.6,148.8,72.9,160.4,74.1z"/>
	</g>
	<g>
		<g>
			<path class="st3" d="M108.9,257.4c-2.7-12.2-9.9-20.7-21.5-25.4c-3.7-1.5-8.1-2.3-13.7-3.4c1.1,3.4,11.6,29.2,30,38.4
				c1-1.4,2.3-2.3,3.8-2.6c0.3-0.8,0.5-1.6,1-2.2C109.8,260.6,109.3,259.1,108.9,257.4z"/>
			<path class="st3" d="M79.6,246.4c-3-5-5.8-10.2-7.5-15.9c0-0.1-0.2-0.2-0.3-0.4c-0.6,1.8-1.9,8.9-2.3,10.9
				c-3.1,20,12.9,31.1,20.3,30c5.9-0.9,8.1-0.1,11.6,0.6c0.4-0.8,0.7-1.6,1.1-2.5C98.7,267.1,90.1,263.9,79.6,246.4z"/>
		</g>
		<g>
			<g>
				<path class="st1" d="M173,333.2c-0.2,4.8,0.3,5.2-2.8,6.5c-14.1,6-21.8,17.1-43.3,6.5c-25.2-12.4-25.3-10.8-22.8-19.1
					c1.6-5.4-6-4-5-10.6c1.5-10.3,6.1-17.7,14.2-22.6c-2.6,10.4,1.4,14.8,6.5,19.7c-5.9,13.1,7.2,20.2,20.9,24.7
					c3.2,1.1,6.4,0.8,9.4-0.7c4-2,12.7-7.2,14.3-11.7c1.2-3.3-0.4-5.3-1.3-6.5l0,0c1.1-1.5,1.8-3.2,2.1-5.4c0-0.1,0.1-0.2,0.2-0.2
					c3.6-1.6,6.4-3.8,8.8-6.7C178.6,312.6,173.4,318.6,173,333.2z"/>
			</g>
			<g>
				<path class="st1" d="M164.6,283.5c-1.6-1.3-5.8-6-15.6-6.9c-4.5-0.4-8.6-0.7-12.8-0.2c-8.2,1-17,5.4-20.8,12.3
					c-0.3,0.5-0.5,0.8-1,0.9c-1.9,0.6-3.8,1.6-6,3.4c-7.4,5.7-10.3,12.2-12.6,20.6c-3.6-1.1-6.1-2.3-7.1-6.8c-1-4.4,0.9-8.7,6-15.8
					c6.5-9.1,7.1-15.2,11.3-22.6c0.8-1.5,2.2-1.3,4.5-1.2c25.1,1.1,32.3-9.4,51.7,3.6C166.2,273.2,165.9,278.9,164.6,283.5z"/>
			</g>
			<g>
				<path class="st1" d="M141.7,354.3c-2.8,8.7-9.9,13.3-18.6,10.8c-6.8-1.9-11.7-4.9-20.5-5.6c-18-1.4-7.7-23.6-21.2-32
					c-3-1.9-5.9-3.3-6.1-4c-0.2-1,2.6-6.4,13.1-10.6c1.9,2.1,4.5,2.9,7,3.4c0.1,1.1-0.1,5.7,4.5,9c0.3,0.2,0.7,0.4,0.7,0.5
					c0,0-0.9,3.1-1,3.7c-1.7,7.9,6.6,10.5,13,13.7C129.1,351.5,130.8,353.1,141.7,354.3z"/>
			</g>
			<g>
				<path class="st1" d="M195.1,341.8c-2,2-4.4,3.5-10.7,6.3c-9.6,4.4-12.5,10.9-14.7,13.6c-4.6,5.8-7.8,0.9-17.6,5.1
					c-3.8,1.6-3.5-2.6-10.2-4.4c0.5-1.1,1.5-1.3,3.6-8.1c12.6-1.3,15.6-6.6,26.7-11.1c3.1-1.3,4.7-3.5,4.8-6.7
					c7.6-2.8,11.2-5,14.4-17C199.9,323.5,202.6,334.6,195.1,341.8z"/>
			</g>
			<g>
				<path class="st1" d="M165.6,309.3c-0.2-5.2,0-12.5-9-16.9c-5.8-2.8-11.2-3.5-16.4-2.2c-12.9,3.5-12.1,13.7-13.6,15.2
					c-1.3,1.3-3.8,3.9-5.1,5.3c-5.6-5.4-5.9-9.2-4.7-15.6c2-9.9,14.1-19.1,36-14.4c6.1,1.3,16.6,11.4,18.9,16.2
					C174.1,302,170.3,306.4,165.6,309.3z"/>
			</g>
			<g>
				<path class="st1" d="M189.8,309.7c-3.5,14.8-5,20.1-12.5,22.9c0-0.1,0-0.3,0-0.4c0.4-12.2,6.2-20.7-1.1-27.7
					c-0.4-0.4-0.5-0.7-0.3-1.2c2-7-2.9-11.8-8.2-16.8c3.5-12.9,0.3-16.5-5.5-20.4c-0.9-0.6-1.2-0.8-1.2-0.8
					c3.5-1.7,14.6-2.4,18.1,12.6c3.5,15.1,2.4,15.2,10.3,26C190.9,306,190.3,307.6,189.8,309.7z"/>
			</g>
			<g>
				<path class="st1" d="M197,318.6l-4.5-2.7c2-8.1,2.7-10,0.5-13.5c-1.9-3.1-6.2-6.9-8.4-18c-2.1-10.3-4-18-12.5-21.9
					c5-1.5,14.5-0.3,22,6.2c4.6,4,3.1,3.6,1.8,11.4c-1.6,9.6,5.4,17.2,6.4,25.9C202.9,310.9,201.5,315.8,197,318.6z"/>
			</g>
			<g>
				<path class="st1" d="M160.6,324.9c-2,3.2-8.2,7.1-11.5,9c-2.7,1.5-5.3,1.7-8,0.7c-15.5-6.3-26.7-12.1-13.6-25.2
					c1.4,7.3,7.9,8.1,13.4,11.2c5.4,3.1,9.2,0.7,10.8,0.9c1.2,0.1,5.2,1.3,8.6-0.1C160.8,322.4,161.4,323.5,160.6,324.9z"/>
			</g>
			<g>
				<path class="st1" d="M99.5,274.1c0,0.1-0.1,0.2-0.1,0.3c-7.4,19.7-17.6,21.9-13.1,35.4l-5.3,2.6c-5.4-5.5,0-18.9-5.1-30.8
					c-0.3-0.8-0.6-1.6-0.9-2.4c-0.3-0.7-0.3-0.7,0.4-1.1C78.1,276.7,91.3,272,99.5,274.1z"/>
			</g>
			<g>
				<path class="st1" d="M163.9,261.2c-2.1,0.3-4.1,0.9-5.8,2.5c-17.4-7.8-23.9,0.5-47.5-0.2c1.8-3.3,7.6-7.6,15.5-14.3
					c0.9-0.8,1.7-0.9,2.7-0.3C141,255.8,155.7,252.2,163.9,261.2z"/>
			</g>
			<g>
				<path class="st1" d="M161.2,313.8c-0.1,0.9-0.4,1.8-0.7,2.6c-0.9,2.3-4.2,2.1-6.6,1.7c1.2-2.8,1.1-5.3,0.4-12.8
					c-1.2-13.8-24.3-3.6-18.4,7.7c0.3,0.5,0.6,1.1,0.9,1.6c-3.2-1.2-5.5-3-5.8-6.4c-1-9.9,7.6-16.1,15.9-14.9
					c8.2,1.2,14.3,4.3,14.6,12.9C161.5,308.7,161.3,311.3,161.2,313.8z"/>
			</g>
			<g>
				<path class="st1" d="M150.4,316.4c-1.2,3.6-7.6,2.9-11.5-4.7c-0.9-1.7-0.8-3.3,0.2-4.9c2.2-3.3,4.9-4.5,8.3-4.5
					c3,0.1,2.9,1.8,3.2,6.7c0.1,0.7,0.2,2.1,0.2,2.9C150.9,314.1,150.9,315.1,150.4,316.4z"/>
			</g>
		</g>
	</g>
	<g>
		<g>
			<path class="st4" d="M311.9,213.1c3.6,3.4-4.2,4-4.8,13.9l6.3,1.8c1.6-2.1,4.8-9.3,3.7-17.1c-0.7-4.6-1.3-9.3-2-13.9c0,0,0,0,0,0
				c-15.5-0.6-18.2-1.6-25.4,4.6l1.6,4.3C298.3,203.9,308.3,209.7,311.9,213.1z"/>
			<path class="st4" d="M251.9,234.5c1.6-1.1,2,1.5,4.3,3.8l0.6-6.5c-2.9-2.7-10.5,1.7-13.3,4.5c1.7,0.8,3.1,0.2,9,5.4
				c3.9,3.5,5.6,6.7,11.9,5.9c8-1.1,6.9-0.9,8.6-0.9c-7.5-2.4-15.5,0.9-21.2-10.1C251.5,236.1,251,235.2,251.9,234.5z"/>
			<path class="st4" d="M277.7,254.1l-0.1-3.2c-4.2-1.3-8.4-0.6-12.4,0.4C273.7,254.6,274.2,255.4,277.7,254.1z"/>
			<path class="st4" d="M278.3,246.1c0.1-0.3,0.3-1,0.4-1.3c-5.4-6.6-5.3-5.8-18.8-11.2c-0.8,2.5-0.7,4.8-0.5,7.4
				c10.6,2.7,14,1.5,18.4,4.8C277.9,245.9,278.1,246,278.3,246.1z"/>
			<path class="st4" d="M274.2,218l-2.2-2.9c-1.4,1.3-3,2-5.3,2.3C269.2,219.1,272.2,219.4,274.2,218z"/>
			<path class="st4" d="M265.4,214.6c2.1,0.5,4.9-1.1,5.2-2c0.2-0.5,0-1.2-0.5-2.2C267.9,211.2,266.4,212.6,265.4,214.6z"/>
			<path class="st4" d="M274.1,227.8c4.5-5.2,7.9-13.3,3.2-17.7c-6.1-5.7-8.4-7.6-9.5-11.5c-5.1,7.6-6.3,7.7-4.6,13.7
				c1.1-1.4,2.5-3.7,6-4.8c4.3-1.3,2.8,3,7.1,9.3c1.2-1.2,1.2-0.9,2.8-0.9c0,0.5,0.2,1.3,0,1.7c-2.3,4-10.2,7-16.3,0.7
				C262.5,220.9,261.3,219.5,274.1,227.8z"/>
			<path class="st4" d="M280.5,240.8c-3.5-5.2-5.4-8.8-10.7-12.1c-10.1-6.4-11-6.9-13.5-12.9c-0.4-1-1.1-2.2,0.1-2.9
				c1.4-0.8,2,1,2.6,2.2l-0.8-6c-3-1.1-5.2-1.2-9.1,1.1c-1.2,0.7-1,1.1,0,2.7c5.2,8,5.7,16.3,15.4,19.2c11.5,3.4,13.8,8.3,15.3,9.9
				L280.5,240.8z"/>
			<path class="st4" d="M280.5,253.8c1-0.2,1.9-0.3,2.4-0.7c4.4-3.2,7.7-5.7,10.7-8.2c13.7-11.2,6.8-20.5,14.3-28.6
				c0.4-0.4,0.9-0.9,1.3-1.4c-5.3-3.9-11-6.5-17.4-5.5c0,10.8-4.9,14.8-13.9,22.3l4.1,6.9c6.2-7,9.4-10.2,10.8-15.1
				c0.5-1.7,3.1-1.2,2.6,0.7C292.2,237.6,281.1,237.3,280.5,253.8z"/>
			<path class="st4" d="M279.3,226.7c1.7-1.6,3.5-3.3,5.1-5.1c3.7-4.1,6.3-11.5,1.5-19c-3.4-5.3-3.1-8.3-3.4-9.1
				c-3.6,1.5-6.7,4.1-9.3,7.8C281.2,208.5,287,212.4,279.3,226.7z"/>
			<path class="st4" d="M247.9,229.4l5.7-1.1c-1.8-3.2-0.9-1.2-5.8-11.1c-2.3-4.7-3.6-6.3-1.8-8.3c4.7-5.2,11.1-3.2,13.3-2.8
				c1.8-4,4.8-7.4,7.1-10.5c1.5-2,3.5-2.2,4.6,1.4c0.2,0.8,0.3,1,0.5,1.4l4-4.9c-5.2-5.1-12.8-1.4-22.5-5c-0.4-0.1-0.8-0.2-1.2-0.3
				c-1.1,2.9-1.2,4.7-5.5,13.7c-2.4,5-4.2,8.4-3.3,13.2C243.9,220,245.6,224.9,247.9,229.4z"/>
			<path class="st4" d="M240.7,250.4c6.4-2.1,12.3-1.4,14.3-1.3c-6.8-6.2-8.7-8.6-13.3-9.4c-1.2-0.2-2.4-0.6-2.8-1.7
				c-0.6-2,2.6-4.3,6.3-7.3c-3.8-7.4-6.1-13.9-5.5-21.3c-9.6-0.5-17.3,7-25,10.8c8.6,11.4,10.7,18.5,15.5,23.7
				C232.4,246.1,237.8,251.4,240.7,250.4z"/>
			<path class="st4" d="M271.1,257.4c-4.7-1.9-17.4-8.1-31.4-2.8c-1.6,0.6-3.1,1.2-4.3,2.1c11.3,10.9,10,13.7,18,19.5
				c9.1,6.6,15.5,10.7,17.8,19.3c2.8-2.3,5.7-5.4,14.4-8.1c6.5-2,12.3-5.5,17.9-10.7c5.6-5.2,7.3-6,11.2-8.1
				c-0.9-0.7-1.6-1.4-2.4-1.9C284.5,250.3,279.2,260.7,271.1,257.4z"/>
			<path class="st4" d="M306.6,230.3c-3.3,11.2-7.1,14.9-18.6,23.4c7.3,1.3,10.9,2.4,20,6.9c1.2,0.6,2.2,0.6,3.4,0.1
				c10.5-4.9,12.6-9,18.4-10.4c0,0,0.1-0.1,0.1-0.1C326.5,242.5,314.6,231.4,306.6,230.3z"/>
		</g>
		<g>
			<g>
				<path class="st3" d="M236,252.1c-3.7-1.8-6.8-4.4-9.9-8.3c-2.7,0.6-8.1,5.1-10.5,7.4c-12.6,12.6-13.1,26.8-12.9,27.8
					C214.1,260.7,228.4,256.8,236,252.1z"/>
				<path class="st3" d="M232.4,259.3c-2-1.4-2.6-0.5-5.5,1.2c-8.5,4.8-16,11.7-21.3,20.4c2.7-0.7,9.5-3.1,19.1-3.2
					c7.3-0.1,14.1,0.1,21-2.9C238.5,266.3,237.4,262.9,232.4,259.3z"/>
			</g>
			<g>
				<path class="st3" d="M250.3,278.8l-1.5-1.1c-7.5,3.1-8.2,3.8-21,4.3c-5.4,11.3-6.4,23.2-3.1,36.2c1.7-6.4,4.2-14.3,9.1-21.5
					C238.2,290.2,243.2,283.6,250.3,278.8z"/>
				<path class="st3" d="M264.2,289.8c-2.8-3.2-6.4-5.6-9.7-8.1c-1.4-1.1-1.1-1-3.7,1.1c-11,9-18.9,22.5-21.9,34
					c12.8-10,33.1-5.3,39.4-16.4C269.7,298,266.5,292.4,264.2,289.8z"/>
			</g>
			<g>
				<path class="st3" d="M319,232.2c8.7,7.1,10.3,9.6,14.2,17.3c1,2,0,3.2-2.1,3.9c-4.5,1.5-8.9,5.7-15.5,9.2c0,0,0,0,0,0
					c12.9,6.3,28.5-11.1,45.7-13c0.2,0,0.5-0.1,0.6-0.2c-1.8-2-3.3-3.9-5-5.5C343.1,230.9,320.2,232,319,232.2z"/>
				<path class="st3" d="M362.9,244.3c-2.6-8.3-6.8-14.5-12.8-19c-9.6-7.2-19.3-10-29.6-8.5c-0.1,3.8-1.2,7.7-3.4,12.2
					C335.4,226.9,352.4,232.5,362.9,244.3z"/>
			</g>
		</g>
	</g>
	<path class="st3" d="M311.6,316.2c-0.8-5.9,2.5-9.2,7.5-9.7c2.8-0.3,3.7-0.1,5.8-0.6c1.2-0.3,1.6,0.2,1.4,0.9
		c-0.3,1.2-1.5,3.4-1.6,7.2c-0.1,3.1-0.7,4.7-4.4,6.5c0.2,0.1,0.4,0.2,0.6,0.3c1,0.5,0.8,1.6-0.1,1.9c-1,0.3-6.9,0.8-9.5,5.4
		c12.3-2.3,15.5-4.1,21.1-6.7c0.8-0.4,5.2-4.2,3.9-10.9c-0.6-3-0.3-4.1,3.7-1.8c1.3-6.5,4.9-6.1,10.1-7.8c0.3-0.1,0.7-0.3,1-0.3
		c0.5-0.1,0.8,0.3,0.8,0.8c-0.1,0.9-0.5,1.5,0.1,4.1c0.8,3.7,1.9,7.3-4.6,9.7c0.4,0.3,3,2.3,3.3,2.8c0.3,0.5,0,1-0.6,1.1
		c-0.3,0-0.6,0-0.9,0c-8.6-0.3-12.3,2.6-19.3,6.2c-0.2,0.1-0.4,0.2-0.6,0.5c0.9-0.1,4.7-0.5,8.5-2.1c1.5-0.6,2.1,0,1.8,0.8
		c-0.3,0.9-1.1,1.7-1.6,2.3c7.3,0.4,6.9,4.9,12.1,8.5c0.5,0.4,1.1,0.7,1,1.3c-0.1,0.6-0.7,0.6-1.2,0.7c-5.3,0.4-9,6.9-15.9,1.9
		c-0.3,0.7-0.4,1.3-0.8,2.4c-0.3,1-1.2,1.2-1.9,0.4c-2.7-2.9-0.4-15-11.4-12.8c-8.4,1.7-16.1,3-16.1,3c0.9,0.1,7.1,0.2,7.9,0.2
		c1.1,0,1.5,1,0.5,1.7c-0.2,0.2-0.5,0.3-0.8,0.5c2.4,0.8,5.2,1.2,6.8,6.4c0.9,2.8,2,4,2.4,4.8c0.4,0.7,0,1.4-1.5,1.1
		c-3.6-0.8-5.5,1.1-9,1.2c-5,0.2-5.7-3.2-6.5-4.6c-6,6.2,1-8.3-7.4-10.3c-2.2-0.5-21.4,0.9-22.3,1c0,0.1,0,0.1-0.1,0.2
		c0.7,0.1,2.2,0.8,2.8,1.1c6.5,3.6,15-0.4,11.4,3.6c5.3,3.1,4.5,5.2,7.3,8.5c0.2,0.2,2.5,2.8,2.6,3c0.5,0.8-0.1,1.6-1.1,1.5
		c-2.8-0.3-4.3,0.8-7.4,0.4c-2.8-0.3-3.9-1.6-5.9-3.5c-1.3,1.2-0.9,0.9-1.6,1.6c-0.7,0.6-1.5,0.5-1.9-0.4
		c-1.6-3.9,0.7-11.6-7.7-14.3c0.4,0.8,1.7,1.7,2.5,5.1c1.9,7.6-0.2,12.8-2.1,13.6c-1.1,0.5-1.5-0.3-2.3-1.1c0,0-0.1-0.1-0.2-0.1
		c-0.4,1.1-0.9,3.6-4.7,4.7c-2.5,0.7-5,0.4-7.4-0.5c-1-0.4-1.2-1.1-0.6-1.9c1.2-1.7,2.1-3.7,3-5.6c1.4-2.9,2.7-3,3.4-3.6
		c-0.4-0.3-1.2-0.8-1.5-1.2c-0.4-0.5-0.1-1.1,0.6-1.1c1.2,0,2.6,0.3,4.6-0.2c6.2-1.6,2-9.7-4.7-8.5c-6.9,1.2-11.3,3.2-15.3,5.2
		c-0.1,0-0.1,0.1-0.1,0.2c2.4-0.3-0.5,0.1,6.6-1.1c1.2-0.2,1.9,0.3,1,1.4c1.4,0.7,1.5,1.9,3.4,3.6c1.5,1.3-0.2,1.6-2,2.5
		c-1.9,0.9-4.1,2-5.9,0c-0.1-0.1-0.3-0.4-0.4-0.4c-0.9,1.2-1.6,0.6-1.9-0.7c-0.7-2.7-4.7-3-6.7-1.4c-9.6,7.6-14.1,17.7-15.6,19.4
		c-0.7,0.8-1.6,0.3-1.5-0.6c0.3-3.4,7.4-12.6,12.3-19.5c3.8-5.4,1.1-6.5-0.8-8.7c-0.4-0.5-0.2-1,0.4-1.1c0.2-0.1,0.5-0.1,0.8-0.1
		c-1.2-5.2,1-5.3,3.8-10.2c0.5-0.9,1.2-0.9,1.7,0c0.9,1.7,6.3,5.6,2.7,10.6c-0.3,0.4-0.6,0.8-0.9,1.2c3.3,1.2-2.3,2-3.8,6.7
		c0.9-0.6,3.2-2.6,7.1-4.6c8.2-4.2,14.5-3.7,16-8.3c0.6-1.7-1-2.9-1.5-4.2c-0.2-0.7,0.2-1.2,0.9-1c0.5,0.1,1,0.2,1.5,0.3
		c0.2-1.1,0.3-3.6,3.4-4.7c5.8-2,6.2-2.2,6.2-2.2c0.6-0.2,1.1,0.2,0.8,1.4c-1,3.8,1.4,6.9-3,9.1c0.2,0.1,0.3,0.2,0.4,0.3
		c0.6,0.4,0.4,1.1-0.1,1.3c-0.8,0.3-2.5,0.1-5.5,2.2c0,0,0,0.1-0.1,0.2c13.6-1.8,16-0.5,17.3-3.8c1.2-3.1-1.7-6.6-0.3-7.3
		c0.6-0.3,1,0.3,1.4,0.8c0.4-2.6,1.4-4.3,4.9-4.8c2.8-0.4,3.7-0.5,3.7,0.7c0.1,4.4,1.5,6.1-0.4,8.2c0.3,0.1,1,0.2,1.4,0.4
		c0.6,0.3,0.6,0.9,0.1,1.2c-0.3,0.2-0.6,0.3-0.8,0.4c-2.3,0.9-3.6,1.2-5.5,2.3c0.9,0,14.9-0.8,18.2-1.9c0.7-0.2,1.1-0.6,1.4-1.3
		c1.2-2.8,1.7-5.8,1.5-8.9c-0.1-1.9-0.6-2.8,0.2-3.2c0.5-0.2,0.8,0.1,1.1,0.4c0.3,0.2,0.5,0.5,0.8,0.7
		C311.5,316.2,311.5,316.2,311.6,316.2z"/>
	<path class="st3" d="M247.4,95.9c-9.1,2.1-11.7-4-18.1-13.5c-1-1.4-0.5-2.4,0.8-2.7c3.2-0.8,12.2-10.8,20-3
		c0.9,0.9,1.5,1.8,2.9,3.5c0.7-1,0.9-2.5,1.4-3.4c0.6-1.1,1.9-1.1,2.7-0.1c3.1,4.5-1.6,5.6,17.4,21.9c8.5,7.2,13.3,14.3,16.7,18.9
		c0-0.1-0.8-8.5-0.8-8.5c-0.5-3.1-6.6-9.1-7.4-10.7c-0.5-1,0.4-1.8,1.2-1.6c0.5,0.2,1.5,0.5,2.1,0.8c-1.1-7.4,1.3-3.5,0.9-16
		c-0.1-1.9,1.1-2.2,1.9-1.5c0.5,0.4,1.8,2.7,2.2,3.3c4.2,6,9.5,4.6,7.4,14.1c11.6,4.1-8,4.5-4.5,19c3.8-8.8,3.5-10.3,6-9.2
		c7.3-3.9,5.5-0.7,12.6-0.1c2,0.2,2.2,1.3,0.6,5.3c-1.2,3.1-3,5.4-9.4,3.9c0,0.1,0,0.1,0,0.1c0.5,2-1.1,1.4-2.6,1.2
		c-3.2-0.6-6.4,2.9-5.1,7.1c0.7,2.4,7.5,15.5,7.8,15.8c-0.3-3-1-6.7-2.2-10.1c-0.3-0.8-0.7-1.7,0-2.2c0.6-0.4,0.9-0.1,1.5,0.3
		c3.6-6.6,4.5-2.2,12.4-9.9c1.2-1.2,2.2-0.2,1.8,1c-1.8,5.7,3.8,9.8-4.1,14.2c0.4,0.3,0.7,0.5,1,0.8c0.9,0.6,0.8,1.6-0.2,2.1
		c-1.1,0.5-4.5,0.4-5.9,5c-1.2,3.7-0.5,7.4,1.1,11c0.9,2.1,5.2,11.7,6.7,13.7c-2.5-9.8-7.6-16.9-2.2-15c1.4-7,5.6-6,8.6-13.1
		c0.6-1.5,2.1-1.1,2.4,0.2c1.3,5,8.2,9.2,3.7,15.3c-0.5,0.7-1.2,1.4-1.8,2.2c6.8,3.8-2,2.2-4.8,11.8c-2.4,8.4,10.2,19.6,17.8,24
		c5.4,3.2,8.5,4,10.2,4.9c0.7,0.4,0.9,1.1,0.2,1.4c-2.1,0.8-7-1.5-20.3-7c-4.6-1.9-5.7,0.8-8,3.6c-0.7,0.8-1.7,0.5-1.9-0.5
		c0-0.3-0.2-1.8-0.2-2.2c-1.4,0.6-4.1,2.4-8.2-0.7c-1.6-1.2-3.1-3.8-4.5-5.3c-1-1-0.8-1.9,0.7-2.3c4-0.9,4.9-3.3,8.5-2.3
		c-0.2-0.8-0.6-1.7,0-2.1c1.5-1,2.8,2.5,11,7.4c0,0,0.1-0.1,0.1-0.1c-18.4-17.9-19.4-34.6-29.1-39.3c-3.3-1.6-5.5,0.6-6.6,1.2
		c-1.9,1.1-2.8,0.4-2.8-0.8c0-0.5,0-0.9,0-1.4c-5.2,0.9-6.3-2.6-8.5-7.4c-1.4-2.9,1.9-1.7,6-4.7c1.5-1.1,3-1.5,4.7-0.5
		c0-0.3,0.1-0.4,0.1-0.6c0.3-1.1,1.4-1.5,2.2-0.6c0.9,0.9,6.5,11.3,7.7,11.2c-0.5-1.4-6.7-14.8-13.5-24.2c-1.2-1.7-6-6.7-11.7-8.7
		c-3.1-1.1-5.9-0.5-8.5,1.4c-3.3,2.4-3.9,4.7-4.7,5.9c-0.9,1.3-2.3,0.8-2.6-0.4c-0.2-0.6-0.3-1.3-0.5-2.1c-0.2,0.3-0.4,0.5-0.6,0.7
		c-4.3,5.7-12.4,3.5-15.8-1.3c-1.4-1.9,0.5-2.4,3.5-5.3c4.9-4.8,3.9-8.6,11.9-8.2c1.3-3.5,2.5-2.3,5.6,0.3c1.2,1,5,4,6.5,4.2
		c4.6,0.8,7.4,2.5,8.5,3.1c0,0,0.1,0,0.2,0c-4.5-5.3-13.7-12.8-15.3-13C251.8,94,246.8,107.9,247.4,95.9z"/>
</g>
</svg>
