<?xml version="1.0" encoding="utf-8"?>
<!-- Generator: Adobe Illustrator 22.0.1, SVG Export Plug-In . SVG Version: 6.00 Build 0)  -->
<svg version="1.1" id="Calque_1" xmlns="http://www.w3.org/2000/svg" xmlns:xlink="http://www.w3.org/1999/xlink" x="0px" y="0px"
	 viewBox="0 0 432 432" style="enable-background:new 0 0 432 432;" xml:space="preserve">
<style type="text/css">
	.st0{fill:#E6E6E6;}
	.st1{fill:#F5D63D;}
	.st2{fill:#78C5D6;}
	.st3{fill:#E868A2;}
	.st4{fill:#459BA8;}
	.st5{fill:#BF62A6;}
	.st6{fill:#F28C33;}
	.st7{fill:#333333;}
	.st8{fill:#1A1A1A;}
	.st9{fill:#79C267;}
	.st10{fill:#71796A;}
	.st11{fill:#8B8285;}
	.st12{fill:#E3A8A4;}
	.st13{fill:#842258;}
	.st14{fill:#300D28;}
	.st15{fill:#36463C;}
	.st16{fill:#FF7470;}
	.st17{fill:#FFE7DD;}
	.st18{fill:#A67C52;}
	.st19{fill:#9FC8C2;}
	.st20{fill:#C1272D;}
	.st21{fill:#B98D4D;}
	.st22{fill:#9DA34B;}
	.st23{fill:#664931;}
	.st24{fill:#748D91;}
	.st25{fill:#F1D2CD;}
	.st26{fill:#FFFFFF;}
	.st27{fill:#C7B299;}
	.st28{fill:#ED1C24;}
	.st29{fill:#7F3762;}
	.st30{fill:#EC1C24;}
	.st31{fill:#B93545;}
	.st32{fill:#E791A0;}
	.st33{fill:#78071D;}
	.st34{fill:#80424C;}
	.st35{fill:#8C6239;}
	.st36{fill:#C69C6D;}
	.st37{fill:#D6B6BA;}
	.st38{fill:#DED2D3;}
	.st39{fill:#B58187;}
	.st40{fill:#7D6364;}
	.st41{fill:#700F3A;}
	.st42{fill:#A46779;}
	.st43{fill:#BC7A98;}
	.st44{fill:#934251;}
	.st45{fill:#313133;}
	.st46{fill:#8C9976;}
	.st47{fill:#596A58;}
	.st48{fill:#CFCAC7;}
	.st49{fill:#D6D39C;}
	.st50{fill:#F2F2F2;}
	.st51{fill:#ED61A0;}
	.st52{fill:#B3A9B7;}
	.st53{fill:#C38B88;}
	.st54{fill:#EDE3E3;}
	.st55{fill:#59476C;}
	.st56{fill:#A7343B;}
	.st57{fill:#F5CECE;}
	.st58{fill:#F78298;}
	.st59{fill:#DE5463;}
	.st60{fill:#7FA4AD;}
	.st61{fill:#9EBCC6;}
	.st62{fill:#E693BF;}
	.st63{fill:#6D5F76;}
	.st64{fill:#FE7F6C;}
	.st65{fill:#603813;}
	.st66{fill:#F0A1A5;}
	.st67{fill:#F60424;}
	.st68{fill:#754C24;}
	.st69{fill:#568445;}
	.st70{fill:#5A4740;}
	.st71{fill:#DDB458;}
	.st72{fill:#D6A14D;}
	.st73{fill:#E3A1BC;}
	.st74{fill:#E5EAA4;}
	.st75{fill:#CEE4EA;}
	.st76{fill:#D8CABF;}
	.st77{fill:#F2E2D4;}
	.st78{fill:#D9C0E0;}
	.st79{fill:#ECC0C2;}
	.st80{fill:#FFDCF4;}
	.st81{fill:#D3E4B0;}
	.st82{fill:#F7FFB4;}
	.st83{fill:#E6F7CE;}
	.st84{fill:#7A9EC7;}
	.st85{fill:#A5C0DF;}
	.st86{fill:#FBB03B;}
	.st87{fill:#F0829E;}
	.st88{fill:#998675;}
	.st89{fill:#A04D7A;}
	.st90{fill:#872B5A;}
	.st91{fill:#A70808;}
	.st92{fill:#42210B;}
	.st93{fill:#CCCCCC;}
	.st94{fill:#B3A18D;}
	.st95{fill:#C6AC8F;}
	.st96{fill:#301506;}
	.st97{fill:#B3A6AD;}
	.st98{fill:#E74C6E;}
	.st99{fill:#F8D9C4;}
	.st100{fill:#CA1542;}
	.st101{fill:#F2A297;}
	.st102{fill:#4D4D4D;}
	.st103{fill:#006837;}
	.st104{fill:#F2B4C0;}
	.st105{fill:#D39253;}
	.st106{fill:#C6824A;}
	.st107{fill:#6B4220;}
	.st108{fill:#936B47;}
	.st109{fill:#F9D7DD;}
	.st110{fill:#3B3735;}
	.st111{fill:#1C7C48;}
	.st112{fill:#A71916;}
	.st113{fill:#7E1710;}
	.st114{fill:#DC4060;}
</style>
<path class="st32" d="M278,91.7c0.1-0.2,0.2-0.4,0.3-0.6c3.6-7.9,9.1-14.1,16.8-18.2c5-2.7,10.4-4.4,16-5.2c2.8-0.4,5.7-0.7,8.6-0.6
	c7.4,0.2,13.9,2.8,19.4,7.8c4.6,4.2,7.8,9.3,10,15c1.3,3.5,2.1,7.1,2.5,10.7c0.3,2.3,0.4,4.5,0.4,6.8c0,4.8-0.7,9.4-1.8,14
	c-1.8,7.7-4.8,14.8-8.4,21.8c-3.1,6-6.8,11.7-10.6,17.3c-4.7,6.8-9.6,13.5-14.8,19.9c-1.3,1.6-2.5,3.1-3.8,4.7
	c-5.5,6.5-11,13-17.1,19c-2.8,2.8-5.7,5.4-8.7,7.9c-0.8,0.7-1.7,1.2-2.6,1.8c-0.3,0.2-0.7,0.4-1.1,0.5c-0.7,0.2-1.3,0.1-1.9-0.4
	c-0.4-0.3-0.9-0.6-1.3-1c-0.6-0.5-1.2-1-1.7-1.5c-1.2-1.2-2.4-2.4-3.6-3.5c-6.2-6.1-12.5-12.2-18.7-18.3c-1.2-1.2-2.3-2.4-3.4-3.6
	c-8.6-9-16.6-18.4-24.1-28.3c-5.4-7.1-10.1-14.6-14.1-22.5c-3.4-6.7-5.7-13.6-7.1-21c-0.9-4.9-1.3-9.8-0.9-14.8
	c0.4-5,1.4-9.9,3.5-14.5c2.3-5.1,5.8-9.2,10.2-12.5c4.9-3.7,10.3-6.1,16.3-7.1c5.5-0.9,11-0.5,16.3,1.3c6.7,2.2,12.7,5.6,17.7,10.7
	c2.5,2.6,4.6,5.4,6,8.8c0.7,1.7,1.2,3.5,1.5,5.3c0,0.1,0,0.2,0.1,0.3C277.9,91.7,278,91.7,278,91.7z M299.1,194.4
	c-0.2,0.1-0.5,0.2-0.7,0.3c-2.1,0.9-4.3,1.4-6.6,1.5c-2.9,0.1-5.5-0.8-7.7-2.6c-2.9-2.4-4-5.8-2.6-9.6c0.7-1.7,1.9-2.9,3.7-3.3
	c2.8-0.7,5.4,0.7,6.8,3.3c0.9,1.9,0.7,3.6-0.6,5.3c-0.6,0.8-1.5,1.2-2.5,1.2c-0.4,0-0.8-0.2-1-0.6c-0.2-0.4-0.1-0.9,0.3-1.2
	c0.2-0.2,0.5-0.4,0.8-0.5c0.9-0.6,1.2-1.8,0.7-2.8c-0.4-0.6-0.9-1.1-1.5-1.5c-1.4-0.9-3-0.5-3.9,0.8c-0.8,1.2-1.1,2.6-0.6,4
	c0.4,1.2,1.1,2.2,2.1,3c1.8,1.4,3.9,2,6.2,1.9c1.7-0.1,3.3-0.5,4.9-1.2c3.5-1.5,6.6-3.7,9.3-6.3c0.7-0.7,1.5-1.5,2.1-2.3
	c2.2-2.8,3.6-6,4.6-9.4c0.7-2.2,1-4.5,0.8-6.8c-0.1-1.1-0.2-2.2-0.4-3.3c-0.5-2.8-1.3-5.5-2.7-8c-2-3.5-4.9-6.1-8.6-7.7
	c-2-0.9-4.1-1.2-6.2-1.5c-0.5-0.1-1-0.2-1.6-0.1c0.3,0.2,0.4,0.3,0.6,0.4c2.5,1.6,4.4,3.8,5.7,6.4c1.6,3.3,2.1,6.7,1,10.2
	c-1.5,4.8-4.8,7.7-9.6,8.9c-2.6,0.6-5.1,0.1-7.1-1.6c-2.8-2.2-4.3-5.2-4-8.8c0.2-2.2,1.3-3.9,3.4-4.8c0.4-0.2,0.9-0.3,1.4-0.4
	c2-0.5,3.8,0.3,4.8,2c0.4,0.7,0.5,1.4,0.5,2.2c0,0.5-0.3,0.8-0.7,0.8c-0.4,0-0.7-0.2-0.9-0.6c-0.1-0.2-0.1-0.4-0.1-0.6
	c-0.1-0.6-0.5-1-1-1.4c-1.7-1-4.2-0.1-4.9,1.7c-0.3,0.8-0.4,1.6-0.3,2.4c0.2,1.7,0.9,3.1,1.9,4.4c1.7,2.2,4,2.9,6.7,2.4
	c0.9-0.2,1.7-0.6,2.5-1c3.5-2,4.8-5.5,4.3-8.9c-0.6-4.1-2.9-7.1-6.4-9.2c-1.5-0.9-3.2-1.4-5.1-1.2c-2.9,0.3-5.3,1.6-7.4,3.5
	c-1.6,1.5-2.8,3.3-3.8,5.3c-2.4,4.8-3.5,9.9-3.7,15.3c-0.2,4.3,0.3,8.5,1.1,12.7c1.2,6.6,3.5,12.8,7,18.5c1,1.5,2,3,2.9,4.6
	c0,0.1,0.1,0.1,0.2,0.2C288.9,205.5,294.3,200.3,299.1,194.4z M256.7,95.4c0.3,0,0.5-0.1,0.7-0.1c2.9-0.4,5.4,0.5,7.2,2.7
	c1.6,2,2.2,4.3,1.9,6.9c-0.1,0.9-0.3,1.8-0.6,2.6c-0.2,0.8-0.6,1.6-1.2,2.3c-0.4,0.5-0.9,0.9-1.4,1c-0.5,0.1-0.9,0-1.1-0.3
	c-0.2-0.4-0.1-0.7,0.2-1c0.9-0.9,1.2-2,1.5-3.1c0.8-3.1-0.7-6.1-3.6-7.3c-0.8-0.3-1.6-0.5-2.4-0.3c-2.6,0.4-4.5,1.9-5.5,4.3
	c-1.3,2.9-1.5,6-0.8,9.1c0.4,1.7,1.3,3.1,2.7,4.2c1.6,1.3,3.5,2.2,5.6,2.3c1.9,0.1,3.7-0.1,5.4-1c2-1.1,3.8-2.6,5.2-4.5
	c2.6-3.6,3.8-7.7,4.1-12c0.2-2.4,0-4.8-0.3-7.1c-0.5-3.6-1.7-6.9-4-9.7c-0.7-0.8-1.4-1.6-2.1-2.4c-4.2-4.2-9.1-7.2-14.6-9.3
	c-4.6-1.8-9.3-2.5-14.2-2c-1,0.1-1.8,0.4-2.4,1.2c-0.3,0.5-0.7,0.9-1,1.4c-1.6,2.6-2.2,5.4-2.1,8.4c0.1,3,1.1,5.7,2.7,8.1
	c1.7,2.7,4.2,4.5,7.2,5.5c2.1,0.6,4.2,0.8,6.4,0.7c1.9,0,3.2-1,4.2-2.5c1.4-2.2,1.9-6-0.1-8.8c-0.6-0.8-1.3-1.4-2.2-1.8
	c-0.6-0.2-1.1-0.2-1.7,0.2c-0.7,0.5-1.1,1.3-1.2,2.2c-0.1,0.7,0.1,1.3,0.7,1.7c0.1,0,0.1,0.1,0.1,0.2c0.4,0.5,0.4,1.1,0,1.5
	c-0.4,0.4-1,0.6-1.5,0.3c-1-0.5-1.8-1.3-2-2.5c-0.2-1.2,0.1-2.3,0.6-3.4c1.4-3,4.8-3.9,7.6-2.2c1.4,0.9,2.3,2.1,2.8,3.6
	c1.2,3.5,1.1,6.9-0.5,10.3C256.9,94.8,256.8,95.1,256.7,95.4z M341,85.4c0,0-0.1,0-0.1,0c0,0.1,0,0.1,0,0.2c0,3.8-1.3,7.1-4.1,9.7
	c-2,1.9-4.4,3.3-6.9,4.2c-2.9,1.1-5.9,1.6-9,2c-1.9,0.3-3.8,0.5-5.6,0.9c-3.3,0.7-6.1,2.3-8.3,4.8c-0.1,0.1-0.2,0.3-0.3,0.4
	c0.3,0,0.5-0.2,0.7-0.3c1.1-0.5,2.3-0.9,3.5-0.9c4.3-0.2,8.6,2.6,10.2,6.6c0.5,1.3,0.7,2.7,0.3,4.1c-0.8,3.4-3,5.5-6.4,6.4
	c-1.3,0.3-2.5,0.1-3.7-0.7c-1.8-1.2-2.8-2.9-3-4.9c-0.1-0.7-0.2-1.4,0-2.1c0.2-0.5,0.6-0.9,1.1-0.8c0.4,0,0.8,0.4,0.9,0.9
	c0.1,0.3,0.1,0.7,0.1,1.1c0.1,1.4,0.5,2.6,1.5,3.5c1,0.9,2,1,3.1,0.4c0.6-0.3,1.1-0.7,1.5-1.2c1.5-1.4,1.8-3.6,0.8-5.4
	c-1-1.9-2.5-3.1-4.6-3.6c-1.3-0.3-2.6-0.2-3.8,0.5c-4,2.2-5,7.5-2.7,11.1c0.7,1.2,1.7,2.2,2.8,3c4.4,3.3,9.3,4.5,14.7,3.5
	c4.5-0.8,8.5-2.7,12-5.5c3.7-2.9,6.8-6.3,9.2-10.4c1.1-1.9,1.5-4,1.8-6.1c0.1-0.9,0.2-1.8,0.1-2.7c-0.3-2-0.5-3.9-1-5.8
	c-0.8-3.7-2-7.3-3.8-10.8C341.8,86.8,341.4,86.1,341,85.4z M274,115.5c-0.3,0.4-0.5,0.6-0.7,0.9c-2.6,3.3-5.8,5.6-10,6.3
	c-4.5,0.8-8.5-0.1-11.9-3.3c-2.1-2-3.7-4.2-4.3-7.1c-0.8-4.4,0.1-8.4,2.6-12c0.1-0.2,0.3-0.4,0.5-0.7c-0.3,0-0.5,0-0.7-0.1
	c-4.3-0.2-8.4-1.3-11.8-4.1c-0.1-0.1-0.2-0.1-0.4-0.2c1.6,5.8,1.5,11.3-1.9,16.5c0.9,0,1.8-0.1,2.6,0c2.5,0.3,4.5,1.4,5.9,3.6
	c1.2,2,1.7,4.1,1.4,6.4c-0.3,2.8-2.4,5.4-5.1,6.2c-3.5,1-6.9-0.8-7.7-4.2c0-0.2-0.1-0.3-0.1-0.5c-0.3-1.4,0.1-2.5,1.1-3.5
	c0.7-0.8,1.7-1.1,2.7-1.1c0.6,0,1,0.4,1.1,0.8c0.1,0.4-0.2,0.8-0.7,1c-0.2,0.1-0.5,0.2-0.8,0.2c-0.8,0.3-1.8,1.3-1.4,2.4
	c0.1,0.3,0.1,0.6,0.2,0.8c0.2,0.5,0.4,1,0.8,1.3c1,0.8,2.2,1.2,3.4,1c1.4-0.2,2.4-1,3.1-2.2c1.4-2.3,1.1-5.6-0.7-7.7
	c-0.6-0.8-1.4-1.3-2.4-1.5c-2.9-0.6-5.4,0-7.3,2.4c-1.6,2-2.4,4.2-2.4,6.8c0.1,4,1.5,7.4,4.4,10.1c2.6,2.4,5.6,3.9,9.1,4.7
	c1.6,0.4,3.3,0.4,4.9,0.3c1,0,2-0.2,3-0.4c2.9-0.7,5.6-2,8.2-3.5c3.4-1.9,6.4-4.4,8.9-7.3c3-3.5,5-7.6,6.4-12
	C274,115.7,274,115.6,274,115.5z M226.3,114c-0.2-0.1-0.2-0.2-0.3-0.2c-2.1-1.2-3.5-3-4-5.4c-0.3-1.5-0.2-3,0.7-4.3
	c0.9-1.4,2.2-2.2,4-2.1c1.9,0.1,4.1,2.3,3.7,5.1c0,0.2-0.1,0.3-0.2,0.5c-0.2,0.4-0.5,0.6-0.9,0.6c-0.5,0-0.7-0.2-0.9-0.6
	c-0.2-0.5-0.3-0.9-0.5-1.4c-0.2-0.4-0.4-0.8-0.7-1.1c-0.6-0.6-1.2-0.6-1.9-0.1c-0.7,0.5-1,1.2-1,2.1c-0.1,1.8,1.2,4,2.8,4.7
	c2.2,1.1,4.7,0.2,5.9-1.9c0.6-1,0.9-2.1,1.2-3.3c0.7-3.1,0.5-6.3-0.1-9.4c-0.6-3.3-1.9-6.3-2.8-9.5c-0.5-1.8-1.1-3.7-1.1-5.6
	c-0.1-3.2,0.6-6.3,2-9.2c0.1-0.1,0.1-0.2,0.2-0.5c-0.3,0.1-0.5,0.1-0.6,0.2c-2.2,0.9-4.4,1.9-6.4,3.3c-5.3,3.5-9.2,8.2-11.3,14.2
	c-1.2,3.5-1.9,7.2-2.1,11c-0.2,3.9,0,7.8,0.5,11.7c0.6,4.3,1.8,8.4,3.2,12.4c0.1,0.2,0.2,0.4,0.3,0.7
	C217.5,120.1,221.3,116.6,226.3,114z M261.6,139.6c-0.1,0.1-0.3,0.1-0.5,0.2c-2,0.9-3.9,1.8-5.9,2.7c-2,0.9-4,1.9-5.8,3.3
	c-5.4,4.3-7.7,9.8-6.5,16.7c0.7,4.2,3,7.5,6.7,9.7c1.9,1.2,3.9,1.8,6.2,1.4c1.8-0.3,3.4-1.1,4.8-2.2c2.5-2,3.9-4.6,3.9-7.9
	c0-1.8-0.8-3-2.4-3.7c-1-0.4-2-0.5-2.9,0.1c-1.1,0.7-1.6,2.5-1.3,3.8c0.1,0.4,0.2,0.8,0.2,1.1c0,0.6-0.4,1-0.9,1.2
	c-0.5,0.1-1.1,0-1.4-0.5c-0.1-0.2-0.2-0.5-0.3-0.7c-0.5-1.5-0.4-3,0.1-4.5c1.4-4,5.9-5.1,9.1-2.8c1.6,1.1,2.5,2.7,2.8,4.7
	c0,0.2,0.1,0.5,0.1,0.7c0.2-0.2,0.2-0.3,0.3-0.5c1.4-4.5,3.6-8.6,7-12c0.2-0.2,0.3-0.5,0.4-0.8c0.6-1.8,0.8-3.7,0.6-5.6
	c-0.3-1.9-0.9-3.6-2.1-5c-1.5-1.9-3.6-2.5-5.8-1.9c-2.6,0.6-4.1,3.3-3.2,5.7c0.4,1,1,1.8,2.1,2.1c0.9,0.3,1.6,0,2.1-0.6
	c0.5-0.6,0.8-1.4,0.2-2.3c-0.1-0.1-0.1-0.3-0.2-0.4c-0.2-0.5-0.2-0.9,0.1-1.2c0.3-0.3,0.8-0.4,1.3-0.1c1,0.5,1.5,1.4,1.5,2.5
	c0.1,1.2-0.4,2.2-1,3.2c-1.4,1.9-4,2.5-6.1,1.5c-2-1-3.1-2.7-3.3-4.9C261.5,141.5,261.6,140.6,261.6,139.6z M301.2,113.5
	c0.2-0.8,0.3-1.5,0.4-2.1c1.6-5.5,5.1-9.2,10.4-11.2c2-0.8,4.1-1.2,6.2-1.5c2-0.2,4-0.4,6-0.7c3.4-0.5,6.5-1.9,9.2-4.1
	c1.9-1.6,3.2-3.7,3.8-6.1c0.2-1,0.3-2,0-2.9c-0.6-2.2-1.8-3.8-4.1-4.4c-0.9-0.2-1.8-0.2-2.7-0.1c-3,0.6-5.2,2.3-6.2,5.3
	c-0.3,0.8-0.3,1.6-0.1,2.4c0.1,0.6,0.5,1,1,1.4c0.9,0.5,1.8,0.6,2.7,0.4c1-0.2,1.6-0.8,2-1.8c0.1-0.2,0.1-0.5,0.2-0.7
	c0.1-0.3,0.2-0.6,0.3-0.8c0.5-0.8,1.4-0.8,1.8,0c0.2,0.4,0.3,0.9,0.3,1.4c-0.2,2.1-1.3,3.6-3.3,4.5c-0.8,0.3-1.6,0.5-2.4,0.5
	c-2.3,0.1-5.3-0.9-6.2-4.4c-0.1-0.2-0.1-0.5-0.2-0.7c-0.1,0-0.1,0-0.1,0c-0.1,0.1-0.3,0.2-0.4,0.3c-1.4,1.2-3.1,1.9-4.9,2
	c-3.4,0.2-6.7-2.2-7.3-5.6c-0.3-1.5,0.1-2.9,1.2-4c0.7-0.7,1.5-1,2.5-0.8c0.8,0.1,1.2,0.5,1.3,1.1c0,0.6-0.4,1-1.2,1.1
	c-0.6,0.1-1,0.5-1.2,1c-0.2,0.6-0.1,1.1,0.1,1.7c0.7,1.5,2.6,2.5,4.2,2.3c1.9-0.3,3.5-1.8,3.7-3.6c0.2-1.7-0.1-3.3-1.2-4.6
	c-1.2-1.5-2.7-2.7-4.6-3.2c-2.6-0.7-4.9-0.2-6.8,1.8c-1.1,1.2-2,2.5-2.4,4.1c-0.8,2.7-0.8,5.4-0.3,8.2c0.2,1.3,0.6,2.5,0.9,3.8
	c0.5,1.9,0.5,3.8,0.1,5.7c-0.9,4.2-3.4,7.3-6.8,9.7c-0.2,0.1-0.4,0.3-0.7,0.5C298.8,109.8,300.1,111.5,301.2,113.5z M279.1,146.1
	c0.2-0.1,0.2-0.2,0.3-0.3c1.9-1.7,3.8-3.4,5.7-5c2.5-2.1,4.9-4.2,7.1-6.6c2.3-2.4,4.3-5.1,5.6-8.2c1-2.3,1.5-4.7,1.4-7.2
	c-0.1-2.4-1.2-4.4-3-6c-1.1-1-2.4-1.2-3.9-0.7c-2.7,0.8-4.5,3.4-4.3,6.1c0.1,1.5,0.8,2.3,2.2,2.8c1.4,0.5,3.4-0.7,3.8-1.9
	c0.1-0.3,0.2-0.7,0.2-1c0-0.8-0.3-0.9-1-0.8c-0.1,0-0.3,0.1-0.4,0.1c-0.3,0-0.6-0.1-0.8-0.5c-0.1-0.3-0.1-0.7,0.1-0.9
	c0.3-0.3,0.7-0.5,1.1-0.6c0.8-0.1,1.5,0.1,2.1,0.7c1.2,1.1,1.6,2.7,0.8,4.4c-1,2.3-3.5,3.8-6,3.6c-2.7-0.3-4.2-1.8-4.8-4
	c-0.3-1-0.3-2-0.1-3c0.3-2,1.3-3.7,2.6-5.2c0.1-0.1,0.3-0.3,0.5-0.5c-2.9-0.2-5.3-1.2-7.5-2.9c-0.1,0.8-0.1,1.6-0.2,2.3
	c-0.1,0.7-0.2,1.4-0.3,2.1c-0.1,0.7-0.3,1.5-0.5,2.2c-0.2,0.7-0.4,1.4-0.6,2.1c-0.2,0.7-0.4,1.4-0.7,2.1s-0.5,1.4-0.8,2
	c-0.3,0.7-0.6,1.4-0.9,2c-0.3,0.7-0.6,1.3-1,1.9s-0.7,1.3-1.1,1.9c-0.4,0.6-0.8,1.2-1.2,1.8c-0.5,0.6-0.9,1.2-1.4,1.7
	c-0.5,0.5-1,1.1-1.5,1.6c-0.5,0.5-1,1-1.5,1.5c0.1,0,0.2,0.1,0.2,0.1c0.1,0,0.1,0,0.2,0c3.2,0.1,5.7,1.5,7.5,4.2
	c1,1.6,1.6,3.3,1.8,5.1C278.9,144,279,145,279.1,146.1z M324.9,133c-9.3,1.3-16.9-1.4-22.4-9.2c0,0.1-0.1,0.2-0.1,0.3
	c-0.9,4.2-2.9,7.9-5.6,11.2c-1.8,2.3-3.9,4.4-6.1,6.3c-0.3,0.3-0.6,0.5-0.9,0.8c0.1,0,0.1,0.1,0.1,0.1c0.2,0,0.4-0.1,0.6-0.2
	c4-1.2,8.1-1.4,12.2-0.7c2.8,0.5,5.5,1.3,8.1,2.3c3.4,1.2,6.9,2.5,10.3,3.7c2,0.7,4.1,1.1,6.3,0.8c3.8-0.4,6.2-2.9,6.9-5.9
	c0.2-0.9,0.4-1.7,0.5-2.6c0.2-1.8,0-3.5-1-5c-1.4-2.1-4.1-2.6-6-1c-1.7,1.5-1.9,4.2,0,5.5c0.5,0.3,0.9,0.4,1.4,0.2
	c0.6-0.2,0.9-0.6,1.1-1.2c0.1-0.4,0.2-0.7,0.3-1.1c0.1-0.4,0.3-0.6,0.7-0.6c0.4,0,0.6,0.2,0.7,0.6c0.2,0.5,0.2,1.1,0.1,1.6
	c-0.6,2.6-3.6,3.8-6,2.5c-1.5-0.8-2.3-2.1-2.5-3.8c-0.2-1.4,0.2-2.7,0.8-3.9C324.6,133.5,324.7,133.3,324.9,133z M303.6,74.5
	c-0.2,0-0.2,0-0.3,0c-0.2,0.1-0.4,0.1-0.5,0.2c-4.9,1.8-9.3,4.5-13.2,7.9c-4,3.5-6.7,7.8-8.2,12.9c-0.5,1.8-0.8,3.6-0.4,5.5
	c0.4,1.6,0.9,3.1,2.1,4.3c2.1,1.9,4.6,2.8,7.5,2.2c3.8-0.8,6.6-3,8.5-6.3c1-1.7,1.4-3.6,1.2-5.6c-0.2-1.7-0.9-3.2-2.2-4.4
	c-1-0.8-2.1-1-3.2-0.6c-1.2,0.4-2.3,1.2-2.9,2.3c-0.3,0.6-0.6,1.1-0.6,1.8c0,0.4-0.2,0.7-0.6,0.8c-0.4,0.1-0.7-0.1-0.9-0.4
	c-0.2-0.4-0.4-0.8-0.5-1.2c-0.3-1.1-0.1-2.2,0.5-3.2c2.4-4.1,6.9-4.9,10.2-3c0.2,0.1,0.3,0.2,0.6,0.3c-0.3-2.4-0.5-4.7,0-7
	C301,78.5,302,76.4,303.6,74.5z M220.4,136.2c1.4,3.7,7.9,13.9,13.9,22c1.8,2.4,3.6,4.8,5.5,7c0-0.1,0-0.3,0-0.4
	c-0.2-1.2-0.5-2.4-0.6-3.6c-0.3-3.3,0.1-6.5,1.4-9.6c1.3-3.1,3.3-5.7,5.9-7.9c0.2-0.2,0.4-0.3,0.5-0.5c-0.9-0.1-1.8-0.1-2.7-0.2
	c-4.4-0.6-8.3-2.3-11.8-5.2c-1.6-1.3-3-2.8-4-4.7c-0.1-0.1-0.2-0.2-0.2-0.4C227.1,136.3,224.2,137.7,220.4,136.2z M305.7,146.2
	c0,0.1-0.1,0.1-0.1,0.2c0.2,0.1,0.3,0.2,0.5,0.3c2.5,1.7,4.7,3.7,6.3,6.4c3.7,6.1,5.1,12.7,3.8,19.8c0,0.2-0.1,0.4-0.1,0.6
	c0.3-0.2,0.5-0.4,0.6-0.6c3.1-4.3,6.3-8.5,9.4-12.8c2.2-3.1,4.2-6.2,6.3-9.3c0.2-0.2,0.3-0.5,0.5-0.8c-0.1,0-0.1-0.1-0.1,0
	c-0.1,0.1-0.2,0.1-0.3,0.2c-2.1,1.3-4.4,1.8-6.8,1.8c-1.6,0-3.3-0.3-4.8-0.8c-3.3-1-6.6-2.1-9.8-3.2
	C309.3,147.4,307.5,146.8,305.7,146.2z M270.3,198.8c-3.2-9.3-4.9-18.8-4-28.7c-0.9,1.4-2,2.8-3.3,3.9c-1.3,1.1-2.7,2-4.3,2.6
	c-1.6,0.6-3.3,0.8-5,0.8c-1.7,0-3.3-0.6-4.9-1.1C255.5,184.1,262.7,191.5,270.3,198.8z M226.4,127.2c-0.7-3.7-0.2-7.1,1.8-10.5
	c-0.4,0.2-0.6,0.2-0.7,0.3c-2.2,1.3-4.1,2.8-5.8,4.7c-0.9,1.1-1.6,2.3-2,3.6c-0.5,1.7-0.6,3.4,0.1,5c0.6,1.7,1.7,3,3.5,3.4
	c0.5,0.1,1,0.1,1.5-0.2c1.2-0.6,2.1-2.5,1.7-3.8c-0.3-1-1.3-1.3-2.1-0.6c-0.1,0.1-0.2,0.2-0.4,0.3c-0.4,0.3-0.8,0.4-1.2,0.1
	c-0.3-0.3-0.4-0.7-0.2-1.2c0.5-1.2,1.8-1.9,3.1-1.6C225.9,127.1,226.1,127.2,226.4,127.2z M333.5,129.9c0.1,0.1,0.2,0.2,0.4,0.2
	c1.8,0.9,3,2.4,3.8,4.2c0.5,1.3,0.8,2.7,0.8,4.1c0,0.2,0,0.4,0,0.6c0.2-0.2,0.3-0.4,0.4-0.6c0.7-1.7,1.5-3.4,2.2-5.2
	c1.6-3.9,3-7.9,4-12c0.1-0.2,0.1-0.4,0.1-0.8C339.9,125.9,338.3,126.8,333.5,129.9z M332.8,76.6c-5.2-3.8-10.9-5.1-17.1-4.6
	c3.7,1.8,6.6,4.2,7.2,8.7C325.6,77.8,328.8,76.5,332.8,76.6z"/>
<g>
	<path class="st20" d="M208.9,308.3c-0.6-3.6-1.7-7-3.5-10.1c-2.6-4.5-6.3-7.8-11-9.9c-2.5-1.1-5.2-1.6-7.9-1.9
		c-0.6-0.1-1.2-0.3-2-0.1c0.3,0.2,0.6,0.4,0.8,0.6c3.1,2.1,5.6,4.8,7.3,8.2c2.1,4.2,2.7,8.6,1.3,13.1c-1.9,6.1-6.2,9.8-12.3,11.3
		c-3.3,0.8-6.4,0.1-9.1-2c-3.6-2.8-5.5-6.6-5.1-11.3c0.2-2.8,1.6-5,4.4-6.1c0.6-0.2,1.2-0.4,1.8-0.6c2.6-0.6,4.8,0.4,6.2,2.6
		c0.5,0.8,0.7,1.8,0.6,2.7c0,0.6-0.4,1-0.9,1c-0.5,0.1-0.9-0.2-1.1-0.8c-0.1-0.2-0.1-0.5-0.2-0.7c-0.1-0.8-0.6-1.3-1.2-1.7
		c-2.1-1.3-5.4-0.2-6.3,2.1c-0.4,1-0.5,2-0.4,3.1c0.2,2.1,1.1,4,2.4,5.6c2.2,2.8,5.1,3.7,8.5,3.1c1.1-0.2,2.2-0.7,3.1-1.3
		c4.4-2.5,6.1-7,5.5-11.4c-0.8-5.2-3.7-9-8.1-11.7c-2-1.2-4.1-1.7-6.4-1.5c-3.7,0.4-6.7,2-9.4,4.5c-2,2-3.6,4.3-4.9,6.8
		c-3.1,6.1-4.5,12.7-4.7,19.5c-0.2,5.5,0.4,10.9,1.4,16.2c1.5,8.4,4.4,16.3,9,23.5c1.2,2,2.5,3.9,3.8,5.8c0.1,0.1,0.2,0.2,0.3,0.3
		c7.4-6.3,14.3-12.9,20.4-20.4c-0.3,0.1-0.6,0.2-0.9,0.4c-2.7,1.2-5.5,1.8-8.4,1.9c-3.7,0.1-7-1-9.8-3.3c-3.7-3-5.1-7.4-3.3-12.3
		c0.8-2.2,2.4-3.6,4.7-4.2c3.5-0.9,6.9,0.9,8.6,4.2c1.2,2.4,0.9,4.7-0.7,6.7c-0.8,1-1.9,1.5-3.2,1.5c-0.6,0-1-0.2-1.2-0.8
		c-0.2-0.6-0.1-1.1,0.3-1.5c0.3-0.3,0.6-0.5,1-0.7c1.2-0.8,1.6-2.3,0.9-3.6c-0.5-0.8-1.1-1.4-1.9-1.9c-1.8-1.1-3.9-0.7-5,1.1
		c-1,1.6-1.3,3.3-0.8,5.1c0.5,1.6,1.4,2.8,2.6,3.8c2.3,1.8,4.9,2.6,7.8,2.4c2.2-0.1,4.2-0.7,6.2-1.5c4.5-1.9,8.4-4.7,11.9-8.1
		c0.9-0.9,1.9-1.9,2.7-2.9c2.8-3.6,4.6-7.7,5.9-12c0.9-2.8,1.2-5.7,1.1-8.7C209.3,311.1,209.1,309.7,208.9,308.3z"/>
	<path class="st20" d="M120.5,220.4c2.6,0.8,5.4,1,8.1,0.9c2.4,0,4.1-1.3,5.3-3.2c1.8-2.8,2.4-7.6-0.1-11.3c-0.7-1-1.7-1.8-2.9-2.3
		c-0.7-0.3-1.5-0.3-2.1,0.2c-0.9,0.7-1.3,1.7-1.5,2.7c-0.2,0.9,0.2,1.6,0.9,2.2c0.1,0.1,0.1,0.1,0.2,0.2c0.5,0.7,0.5,1.4,0,2
		c-0.5,0.5-1.2,0.7-1.9,0.3c-1.3-0.7-2.2-1.7-2.5-3.2c-0.3-1.5,0.1-2.9,0.7-4.3c1.8-3.8,6.1-5,9.6-2.8c1.7,1.1,2.9,2.6,3.6,4.5
		c1.5,4.4,1.4,8.8-0.6,13.1c-0.1,0.3-0.3,0.5-0.4,0.9c0.4-0.1,0.6-0.1,0.9-0.1c3.7-0.6,6.8,0.6,9.2,3.5c2,2.5,2.8,5.5,2.4,8.7
		c-0.1,1.1-0.4,2.2-0.7,3.3c-0.3,1.1-0.8,2.1-1.5,2.9c-0.5,0.6-1.1,1.1-1.8,1.3c-0.6,0.2-1.2,0-1.4-0.4c-0.3-0.5-0.1-0.9,0.2-1.3
		c1.1-1.1,1.5-2.5,1.9-3.9c1-3.9-0.9-7.8-4.5-9.4c-1-0.4-2-0.6-3.1-0.4c-3.3,0.6-5.7,2.4-7.1,5.5c-1.7,3.8-2,7.6-1,11.6
		c0.5,2.2,1.6,4,3.4,5.4c2.1,1.7,4.4,2.8,7.2,2.9c2.4,0.1,4.8-0.1,6.9-1.3c2.6-1.4,4.9-3.3,6.7-5.7c3.3-4.6,4.8-9.8,5.2-15.3
		c0.2-3,0.1-6.1-0.3-9.1c-0.6-4.6-2.2-8.7-5.2-12.3c-0.9-1-1.7-2.1-2.7-3c-5.3-5.3-11.6-9.1-18.6-11.9c-5.8-2.3-11.8-3.2-18.1-2.6
		c-1.3,0.1-2.3,0.5-3,1.6c-0.4,0.6-0.9,1.2-1.3,1.8c-2,3.3-2.8,6.9-2.7,10.8c0.1,3.8,1.4,7.2,3.4,10.4
		C113.4,216.9,116.6,219.2,120.5,220.4z"/>
	<path class="st20" d="M252,231.7c-0.3-2.5-0.7-5-1.2-7.4c-1-4.8-2.6-9.4-4.8-13.7c-0.5-1-1-1.9-1.5-2.8c-0.1,0-0.1,0-0.2,0.1
		c0,0.1,0,0.2,0,0.2c0.1,4.9-1.7,9-5.2,12.4c-2.5,2.5-5.5,4.2-8.8,5.4c-3.7,1.4-7.6,2-11.5,2.6c-2.4,0.3-4.8,0.6-7.2,1.1
		c-4.2,0.9-7.8,2.9-10.6,6.1c-0.1,0.2-0.3,0.4-0.4,0.5c0.4-0.1,0.6-0.2,0.9-0.3c1.4-0.7,2.9-1.1,4.4-1.2c5.5-0.3,11,3.3,13,8.4
		c0.7,1.7,0.8,3.5,0.4,5.3c-1,4.4-3.8,7.1-8.1,8.1c-1.7,0.4-3.2,0.1-4.7-0.9c-2.3-1.5-3.5-3.6-3.9-6.3c-0.1-0.9-0.2-1.8,0-2.7
		c0.2-0.7,0.8-1.1,1.3-1.1c0.6,0,1.1,0.5,1.2,1.1c0.1,0.4,0.1,0.9,0.1,1.4c0.1,1.8,0.6,3.3,2,4.5c1.2,1.1,2.6,1.3,4,0.5
		c0.7-0.4,1.4-0.9,2-1.5c1.9-1.8,2.3-4.5,1.1-6.9c-1.2-2.4-3.2-3.9-5.8-4.6c-1.7-0.4-3.3-0.2-4.8,0.6c-5,2.8-6.4,9.5-3.5,14.1
		c0.9,1.5,2.1,2.8,3.5,3.9c5.6,4.3,11.9,5.7,18.8,4.5c5.7-1.1,10.8-3.4,15.3-7c4.7-3.7,8.7-8,11.8-13.2c1.4-2.4,2-5.1,2.3-7.8
		C252.1,234,252.1,232.9,252,231.7z"/>
	<path class="st20" d="M111.1,252.3c-0.3,0.1-0.6,0.2-1,0.3c-1.1,0.3-2.2,1.6-1.8,3c0.1,0.3,0.1,0.8,0.2,1.1c0.3,0.6,0.6,1.3,1,1.7
		c1.2,1.1,2.7,1.5,4.4,1.3c1.8-0.2,3.1-1.3,4-2.8c1.8-2.9,1.4-7.1-0.8-9.9c-0.8-1-1.8-1.7-3-2c-3.7-0.8-6.9,0-9.3,3.1
		c-2,2.5-3.1,5.4-3.1,8.6c0.1,5.1,1.9,9.4,5.6,12.9c3.3,3.1,7.2,5,11.6,6c2.1,0.5,4.2,0.4,6.2,0.4c1.3-0.1,2.6-0.2,3.8-0.5
		c3.7-0.9,7.2-2.5,10.5-4.4c4.3-2.5,8.1-5.6,11.4-9.3c3.9-4.5,6.4-9.7,8.2-15.3c0-0.1,0-0.1,0-0.3c-0.3,0.5-0.6,0.8-0.9,1.1
		c-3.3,4.2-7.4,7.1-12.7,8c-5.7,1-10.9-0.2-15.2-4.2c-2.7-2.5-4.8-5.4-5.4-9.1c-1-5.5,0.2-10.7,3.3-15.4c0.2-0.3,0.4-0.5,0.6-0.9
		c-0.4,0-0.7-0.1-1-0.1c-5.5-0.3-10.7-1.7-15.1-5.2c-0.1-0.1-0.2-0.1-0.5-0.2c2.1,7.4,2,14.4-2.4,21c1.2,0,2.2-0.1,3.3,0
		c3.2,0.3,5.8,1.8,7.5,4.6c1.5,2.5,2.1,5.2,1.8,8.1c-0.4,3.6-3.1,6.8-6.5,7.8c-4.5,1.3-8.7-1-9.8-5.4c-0.1-0.2-0.1-0.4-0.1-0.6
		c-0.4-1.7,0.2-3.2,1.4-4.5c0.9-1,2.1-1.4,3.5-1.4c0.7,0,1.2,0.4,1.4,1C112.2,251.5,111.8,252,111.1,252.3z"/>
	<path class="st20" d="M98.2,244.2c-0.2-0.1-0.3-0.2-0.4-0.3c-2.7-1.6-4.4-3.9-5.1-6.9c-0.4-1.9-0.2-3.8,0.9-5.5
		c1.2-1.8,2.9-2.8,5.1-2.7c2.4,0.1,5.3,3,4.8,6.5c0,0.2-0.1,0.4-0.2,0.6c-0.2,0.5-0.6,0.7-1.2,0.7c-0.6,0-0.9-0.3-1.1-0.8
		c-0.2-0.6-0.4-1.2-0.6-1.7c-0.2-0.5-0.5-1-0.9-1.4c-0.7-0.8-1.6-0.8-2.4-0.1c-0.9,0.6-1.3,1.6-1.3,2.6c-0.2,2.3,1.5,5.1,3.5,6.1
		c2.8,1.3,6,0.3,7.5-2.5c0.7-1.3,1.2-2.7,1.5-4.2c0.9-4,0.7-8-0.1-12c-0.8-4.2-2.4-8.1-3.6-12.1c-0.7-2.3-1.4-4.7-1.5-7.1
		c-0.2-4.1,0.7-8.1,2.6-11.7c0.1-0.2,0.1-0.3,0.3-0.6c-0.4,0.1-0.6,0.2-0.8,0.3c-2.8,1.1-5.6,2.5-8.1,4.2
		c-6.8,4.5-11.7,10.4-14.4,18.2c-1.6,4.5-2.4,9.2-2.7,14c-0.3,5,0,10,0.7,14.9c0.7,5.4,2.3,10.7,4.1,15.9c0.1,0.3,0.2,0.5,0.4,0.9
		C86.9,252.1,91.8,247.6,98.2,244.2z"/>
	<path class="st20" d="M135.8,320.3c2.3-0.4,4.3-1.3,6.1-2.8c3.2-2.6,5-5.8,5-10c0-2.2-1-3.8-3.1-4.7c-1.2-0.5-2.5-0.6-3.7,0.2
		c-1.3,0.9-2.1,3.2-1.7,4.8c0.1,0.5,0.2,1,0.2,1.4c0,0.7-0.5,1.3-1.1,1.5c-0.7,0.2-1.4-0.1-1.8-0.7c-0.2-0.3-0.3-0.6-0.4-0.9
		c-0.6-1.9-0.5-3.8,0.2-5.7c1.8-5.1,7.6-6.5,11.6-3.5c2,1.5,3.2,3.5,3.5,5.9c0,0.3,0.1,0.6,0.2,0.9c0.2-0.2,0.3-0.4,0.4-0.6
		c1.8-5.8,4.6-11,8.9-15.4c0.3-0.3,0.4-0.7,0.6-1c0.8-2.3,1.1-4.7,0.7-7.2c-0.3-2.4-1.1-4.5-2.7-6.4c-2-2.4-4.5-3.1-7.5-2.5
		c-3.3,0.7-5.2,4.2-4.1,7.3c0.5,1.3,1.3,2.3,2.7,2.7c1.1,0.3,2,0,2.7-0.8c0.7-0.8,1-1.8,0.3-2.9c-0.1-0.2-0.2-0.3-0.3-0.5
		c-0.3-0.6-0.2-1.2,0.2-1.5c0.4-0.4,1-0.5,1.6-0.1c1.2,0.7,1.9,1.7,2,3.1c0.1,1.5-0.5,2.8-1.3,4c-1.7,2.4-5.1,3.3-7.7,1.9
		c-2.5-1.3-3.9-3.5-4.2-6.3c-0.1-1.2,0-2.4,0-3.6c-0.2,0.1-0.4,0.2-0.7,0.3c-2.5,1.2-5,2.3-7.5,3.5c-2.6,1.2-5.1,2.5-7.3,4.2
		c-6.9,5.4-9.8,12.5-8.3,21.2c0.9,5.4,3.8,9.5,8.5,12.4C130.3,320,132.9,320.8,135.8,320.3z"/>
	<path class="st20" d="M196,212.7c0.3,1.6,0.8,3.2,1.2,4.8c0.6,2.4,0.7,4.9,0.1,7.3c-1.2,5.3-4.3,9.3-8.7,12.4
		c-0.2,0.2-0.5,0.3-0.8,0.6c2.8,1.1,4.4,3.2,5.9,5.7c0.2-1,0.3-1.9,0.6-2.7c2-7,6.6-11.7,13.3-14.3c2.5-1,5.2-1.5,7.9-1.9
		c2.6-0.3,5.1-0.5,7.7-0.9c4.4-0.7,8.3-2.4,11.7-5.2c2.5-2.1,4.1-4.7,4.8-7.8c0.3-1.2,0.4-2.5,0.1-3.7c-0.7-2.8-2.2-4.9-5.2-5.6
		c-1.1-0.3-2.2-0.3-3.4-0.1c-3.9,0.8-6.6,2.9-7.9,6.7c-0.3,1-0.4,2-0.2,3c0.2,0.8,0.6,1.3,1.3,1.7c1.1,0.6,2.3,0.7,3.5,0.5
		c1.3-0.2,2.1-1.1,2.6-2.3c0.1-0.3,0.2-0.6,0.3-0.9c0.1-0.3,0.2-0.7,0.4-1c0.6-1,1.8-1,2.3,0.1c0.2,0.5,0.4,1.2,0.3,1.8
		c-0.3,2.7-1.6,4.6-4.2,5.7c-1,0.4-2,0.6-3,0.7c-2.9,0.1-6.7-1.2-7.8-5.6c-0.1-0.3-0.2-0.6-0.2-0.8c-0.1,0-0.1,0-0.1,0
		c-0.2,0.1-0.3,0.3-0.5,0.4c-1.8,1.5-3.9,2.4-6.3,2.6c-4.4,0.3-8.5-2.9-9.3-7.1c-0.4-1.9,0.1-3.7,1.5-5.1c0.9-0.9,2-1.2,3.2-1.1
		c1,0.1,1.6,0.6,1.6,1.4c0,0.7-0.5,1.3-1.5,1.4c-0.8,0.1-1.2,0.6-1.5,1.3c-0.3,0.7-0.2,1.4,0.2,2.1c0.9,1.9,3.3,3.2,5.3,2.9
		c2.4-0.3,4.5-2.4,4.8-4.6c0.3-2.2-0.1-4.2-1.5-5.9c-1.6-1.9-3.5-3.4-5.9-4.1c-3.3-0.9-6.3-0.2-8.7,2.3c-1.4,1.5-2.5,3.2-3.1,5.2
		C195.4,205.8,195.4,209.2,196,212.7z"/>
	<path class="st20" d="M156.6,265.3c-0.6,0.7-1.3,1.4-1.9,2c-0.6,0.6-1.3,1.3-1.9,1.9c0.2,0.1,0.2,0.1,0.2,0.1c0.1,0,0.2,0,0.3,0
		c4.1,0.1,7.3,2,9.5,5.4c1.3,2,2,4.2,2.3,6.6c0.2,1.2,0.2,2.5,0.3,3.9c0.2-0.2,0.3-0.3,0.4-0.4c2.4-2.1,4.8-4.3,7.3-6.4
		c3.1-2.7,6.3-5.4,9.1-8.4c2.9-3.1,5.4-6.5,7.2-10.4c1.3-2.9,2-5.9,1.8-9.1c-0.2-3.1-1.5-5.6-3.8-7.6c-1.5-1.3-3.1-1.5-4.9-1
		c-3.4,1-5.7,4.3-5.5,7.7c0.1,1.9,1.1,3,2.8,3.5c1.8,0.6,4.3-0.9,4.8-2.4c0.1-0.4,0.3-0.8,0.2-1.2c0-1-0.4-1.2-1.3-1
		c-0.2,0-0.4,0.1-0.5,0.1c-0.4,0-0.8-0.2-1-0.6c-0.2-0.4-0.1-0.9,0.2-1.2c0.4-0.4,0.9-0.7,1.4-0.8c1-0.1,1.9,0.2,2.6,0.8
		c1.6,1.4,2,3.5,1.1,5.6c-1.3,2.9-4.5,4.9-7.7,4.5c-3.4-0.4-5.4-2.4-6.1-5.1c-0.3-1.3-0.4-2.6-0.2-3.8c0.4-2.6,1.6-4.7,3.4-6.7
		c0.2-0.2,0.3-0.4,0.6-0.7c-3.7-0.2-6.7-1.6-9.6-3.7c-0.1,1.1-0.2,2-0.3,2.9c-0.1,0.9-0.3,1.8-0.4,2.7c-0.2,0.9-0.4,1.9-0.6,2.8
		c-0.2,0.9-0.5,1.8-0.7,2.7s-0.5,1.8-0.9,2.6c-0.3,0.9-0.6,1.7-1,2.6c-0.4,0.9-0.8,1.7-1.2,2.6c-0.4,0.8-0.8,1.7-1.2,2.5
		c-0.4,0.8-0.9,1.6-1.4,2.4c-0.5,0.8-1,1.5-1.6,2.3C157.9,263.9,157.2,264.6,156.6,265.3z"/>
	<path class="st20" d="M227.6,269.8c-2.2,1.9-2.4,5.4,0,7c0.6,0.4,1.2,0.5,1.8,0.2c0.7-0.3,1.1-0.8,1.4-1.5c0.1-0.5,0.2-1,0.4-1.4
		c0.1-0.5,0.4-0.8,0.9-0.7c0.5,0,0.7,0.3,0.9,0.7c0.2,0.7,0.3,1.4,0.1,2.1c-0.8,3.3-4.6,4.8-7.7,3.2c-1.9-1-2.9-2.7-3.1-4.8
		c-0.2-1.8,0.3-3.4,1.1-5c0.1-0.3,0.3-0.6,0.5-0.9c-11.9,1.7-21.6-1.8-28.6-11.7c-0.1,0.1-0.1,0.2-0.1,0.3c-1.1,5.4-3.7,10-7.1,14.3
		c-2.4,2.9-5,5.6-7.8,8.1c-0.4,0.3-0.8,0.7-1.2,1.1c0.1,0.1,0.1,0.1,0.2,0.1c0.3-0.1,0.5-0.1,0.8-0.2c5.1-1.5,10.3-1.8,15.6-0.9
		c3.6,0.6,7,1.7,10.4,2.9c4.4,1.6,8.8,3.2,13.2,4.7c2.6,0.9,5.3,1.3,8.1,1.1c4.9-0.5,7.9-3.7,8.8-7.5c0.3-1.1,0.5-2.2,0.6-3.4
		c0.2-2.3,0-4.4-1.3-6.4C233.5,268.3,229.9,267.7,227.6,269.8z"/>
	<path class="st20" d="M170.6,233.1c2.7,2.5,5.8,3.6,9.5,2.8c4.8-1,8.4-3.8,10.8-8c1.3-2.2,1.8-4.6,1.5-7.2
		c-0.3-2.2-1.1-4.1-2.8-5.6c-1.2-1.1-2.6-1.3-4.1-0.8c-1.6,0.5-2.9,1.5-3.7,3c-0.4,0.7-0.7,1.4-0.8,2.2c0,0.5-0.2,0.9-0.7,1
		c-0.5,0.1-0.9-0.1-1.2-0.5c-0.3-0.5-0.5-1-0.6-1.5c-0.3-1.4-0.1-2.8,0.6-4.1c3.1-5.3,8.8-6.2,13-3.8c0.2,0.1,0.4,0.2,0.7,0.4
		c-0.4-3.1-0.6-6,0-9c0.6-3,1.9-5.6,3.9-8c-0.2,0-0.3,0-0.3,0c-0.2,0.1-0.5,0.2-0.7,0.2c-6.3,2.2-11.8,5.7-16.9,10
		c-5.2,4.4-8.5,9.9-10.5,16.4c-0.7,2.3-1,4.6-0.5,7C168.4,229.6,169,231.6,170.6,233.1z"/>
	<path class="st20" d="M124,282.1c0.2-0.2,0.6-0.3,0.6-0.7c-1.2-0.1-2.3-0.1-3.5-0.3c-5.6-0.8-10.6-3-15-6.6c-2-1.7-3.8-3.6-5-5.9
		c-0.1-0.2-0.2-0.3-0.3-0.5c-1.7,4.5-5.3,6.4-10.1,4.4c1.8,4.7,10.1,17.8,17.7,28c2.3,3,4.6,6.1,7,9c0.1-0.2,0-0.3,0-0.5
		c-0.2-1.5-0.6-3.1-0.7-4.6c-0.4-4.2,0.1-8.3,1.8-12.3C118.2,288.2,120.7,284.9,124,282.1z"/>
	<path class="st20" d="M233.6,290.3c-2.7,1.6-5.6,2.3-8.7,2.3c-2.1,0-4.2-0.4-6.2-1c-4.2-1.3-8.4-2.7-12.5-4
		c-2.2-0.7-4.5-1.5-6.7-2.2c0,0.1-0.1,0.1-0.1,0.2c0.2,0.1,0.4,0.3,0.6,0.4c3.2,2.1,6,4.8,8.1,8.1c4.7,7.8,6.5,16.2,4.8,25.2
		c0,0.3-0.1,0.5-0.1,0.8c0.4-0.2,0.6-0.5,0.8-0.7c4-5.4,8.1-10.9,12-16.4c2.8-3.9,5.4-7.9,8.1-11.9c0.2-0.3,0.4-0.7,0.6-1
		c-0.1,0-0.2-0.1-0.2-0.1C233.9,290.2,233.7,290.2,233.6,290.3z"/>
	<path class="st20" d="M149.1,315.7c-1.2,1.8-2.6,3.5-4.2,4.9c-1.7,1.4-3.5,2.6-5.5,3.3c-2.1,0.7-4.2,1.1-6.4,1
		c-2.2,0-4.2-0.7-6.2-1.4c8.6,10.2,17.9,19.6,27.5,28.8C150.1,340.5,147.9,328.4,149.1,315.7z"/>
	<path class="st20" d="M94.1,269.6c0.7,0.2,1.3,0.1,2-0.2c1.5-0.7,2.6-3.2,2.2-4.8c-0.3-1.3-1.7-1.7-2.6-0.7
		c-0.2,0.1-0.3,0.3-0.5,0.4c-0.6,0.4-1.1,0.5-1.5,0.1c-0.4-0.3-0.5-0.9-0.2-1.5c0.7-1.5,2.3-2.4,3.9-2c0.3,0.1,0.5,0.1,0.9,0.2
		c-0.9-4.7-0.2-9.1,2.2-13.4c-0.5,0.2-0.7,0.3-0.9,0.4c-2.8,1.6-5.3,3.6-7.4,6c-1.2,1.4-2.1,2.9-2.6,4.6c-0.7,2.1-0.7,4.3,0.1,6.4
		C90.4,267.4,91.8,269,94.1,269.6z"/>
	<path class="st20" d="M234.9,264.5c0.2,0.1,0.3,0.2,0.5,0.3c2.3,1.2,3.8,3,4.8,5.4c0.7,1.7,1.1,3.4,1,5.2c0,0.2,0,0.5,0,0.7
		c0.3-0.3,0.4-0.5,0.5-0.8c1-2.2,1.9-4.4,2.8-6.6c2-5,3.9-10.1,5.1-15.4c0.1-0.3,0.1-0.6,0.2-1C243,259.5,241,260.6,234.9,264.5z"/>
	<path class="st20" d="M221.4,201.8c3.4-3.7,7.6-5.4,12.6-5.2c-6.6-4.9-13.9-6.5-21.8-5.8C216.9,193,220.5,196.1,221.4,201.8z"/>
</g>
</svg>
