<?xml version="1.0" encoding="iso-8859-1"?>
<!-- Generator: Adobe Illustrator 21.1.0, SVG Export Plug-In . SVG Version: 6.00 Build 0)  -->
<svg version="1.1" id="Calque_1" xmlns="http://www.w3.org/2000/svg" xmlns:xlink="http://www.w3.org/1999/xlink" x="0px" y="0px"
	 width="432px" height="432px" viewBox="0 0 432 432" enable-background="new 0 0 432 432" xml:space="preserve">
<g>
	<g>
		<path fill="#F3E5E4" d="M151.471,136.714c-0.023,0.524-0.057,1.042-0.102,1.56c-0.113,1.295-0.289,2.59-0.537,3.88
			c-0.463,2.45-1.157,4.893-2.038,7.298c-0.677,1.841-1.461,3.66-2.341,5.445c-1.111,2.258-2.374,4.459-3.749,6.57
			c-1.229,1.892-2.548,3.71-3.923,5.438c-1.916,2.381-3.939,4.593-6.019,6.569c-2.203,2.099-4.463,3.934-6.694,5.442
			c-3.882,2.622-7.679,4.253-10.945,4.538c0,0.372,0.011,1.183,0.033,2.022c0.033,1.008,0.078,2.061,0.151,2.456
			c0.828,0.209,2.264,0.683,2.263,1.229c0,0.698-1.679,1.644-2.958,1.761c-0.084,0.006-0.169,0.011-0.248,0.011
			c-0.079,0-0.163-0.006-0.248-0.011c-1.261-0.119-2.872-1.066-2.871-1.765c0-0.558,1.38-1.035,2.237-1.238
			c0.051-0.282,0.085-1.368,0.137-2.444c0.029-0.772,0.068-1.537,0.114-1.988c-3.103-0.126-6.616-1.812-10.174-4.585
			c-1.948-1.516-3.912-3.359-5.826-5.45c-1.829-1.989-3.619-4.204-5.313-6.576c-1.244-1.735-2.442-3.561-3.567-5.443
			c-1.272-2.13-2.459-4.332-3.533-6.575c-0.855-1.797-1.642-3.622-2.334-5.447c-0.928-2.445-1.692-4.895-2.26-7.3
			c-0.438-1.848-0.758-3.667-0.943-5.441c-0.078-0.698-0.134-1.391-0.168-2.073c-0.072-1.504-0.071-3.007,0.003-4.5
			c0.091-1.83,0.295-3.649,0.606-5.446c0.384-2.236,0.932-4.437,1.649-6.566c0.626-1.875,1.382-3.694,2.256-5.445
			c1.167-2.337,2.548-4.538,4.143-6.57c1.567-1.998,3.336-3.822,5.303-5.437c3.685-3.033,8.062-5.317,13.076-6.565
			c2.8-0.697,5.796-1.067,8.984-1.065c3.024,0.002,5.891,0.375,8.577,1.075c4.831,1.248,9.099,3.537,12.741,6.58
			c1.936,1.618,3.692,3.443,5.263,5.444c1.598,2.028,3.005,4.237,4.203,6.575c0.906,1.746,1.693,3.572,2.362,5.447
			c0.759,2.129,1.366,4.326,1.815,6.568c0.359,1.791,0.617,3.616,0.774,5.447C151.552,132.321,151.59,134.518,151.471,136.714z"/>
		<path fill="#F3E5E4" d="M223.449,179.589c-0.023,0.524-0.057,1.042-0.102,1.56c-0.113,1.295-0.289,2.59-0.537,3.88
			c-0.463,2.45-1.157,4.893-2.038,7.298c-0.677,1.841-1.461,3.66-2.341,5.445c-1.111,2.258-2.374,4.459-3.749,6.57
			c-1.229,1.892-2.548,3.71-3.923,5.438c-1.916,2.381-3.939,4.593-6.019,6.569c-2.203,2.099-4.463,3.934-6.694,5.442
			c-3.882,2.622-7.679,4.253-10.945,4.538c0,0.372,0.011,1.183,0.033,2.022c0.033,1.008,0.078,2.061,0.151,2.456
			c0.828,0.209,2.264,0.683,2.263,1.229c0,0.698-1.679,1.644-2.958,1.761c-0.085,0.006-0.169,0.011-0.248,0.011
			c-0.079,0-0.163-0.006-0.248-0.011c-1.261-0.119-2.872-1.066-2.871-1.765c0-0.558,1.38-1.035,2.237-1.238
			c0.051-0.282,0.085-1.368,0.137-2.444c0.029-0.772,0.068-1.537,0.114-1.988c-3.103-0.126-6.616-1.812-10.174-4.585
			c-1.948-1.516-3.912-3.359-5.826-5.45c-1.829-1.989-3.619-4.204-5.313-6.576c-1.244-1.735-2.442-3.561-3.567-5.443
			c-1.272-2.13-2.459-4.332-3.533-6.575c-0.855-1.797-1.642-3.622-2.334-5.447c-0.928-2.445-1.692-4.895-2.26-7.3
			c-0.438-1.848-0.758-3.667-0.943-5.441c-0.078-0.698-0.134-1.391-0.168-2.073c-0.072-1.504-0.071-3.007,0.003-4.5
			c0.091-1.83,0.295-3.649,0.606-5.446c0.384-2.236,0.932-4.437,1.648-6.566c0.626-1.875,1.382-3.694,2.256-5.445
			c1.167-2.337,2.548-4.538,4.143-6.57c1.567-1.998,3.336-3.822,5.303-5.437c3.685-3.033,8.062-5.317,13.076-6.565
			c2.8-0.697,5.796-1.067,8.984-1.065c3.024,0.002,5.891,0.375,8.577,1.075c4.831,1.248,9.099,3.537,12.741,6.58
			c1.936,1.618,3.692,3.443,5.263,5.444c1.598,2.028,3.005,4.237,4.203,6.575c0.906,1.746,1.693,3.572,2.362,5.447
			c0.759,2.129,1.366,4.326,1.815,6.568c0.359,1.791,0.617,3.616,0.774,5.447C223.531,175.197,223.569,177.393,223.449,179.589z"/>
		<path fill="#F3E5E4" d="M289.435,106.493c-0.023,0.524-0.057,1.042-0.102,1.56c-0.113,1.295-0.289,2.59-0.537,3.88
			c-0.463,2.45-1.157,4.893-2.038,7.298c-0.677,1.841-1.461,3.66-2.341,5.445c-1.111,2.258-2.374,4.459-3.749,6.57
			c-1.229,1.892-2.548,3.71-3.923,5.438c-1.916,2.381-3.939,4.593-6.019,6.569c-2.203,2.099-4.463,3.934-6.694,5.442
			c-3.882,2.622-7.679,4.253-10.945,4.538c0,0.372,0.011,1.183,0.033,2.022c0.033,1.008,0.078,2.061,0.151,2.456
			c0.828,0.209,2.264,0.683,2.263,1.229c0,0.698-1.679,1.644-2.958,1.761c-0.084,0.006-0.169,0.011-0.248,0.011
			c-0.079,0-0.163-0.006-0.248-0.011c-1.261-0.119-2.872-1.066-2.871-1.765c0-0.558,1.38-1.035,2.237-1.238
			c0.051-0.282,0.085-1.368,0.137-2.444c0.029-0.772,0.068-1.537,0.114-1.988c-3.103-0.126-6.616-1.812-10.174-4.585
			c-1.948-1.516-3.912-3.359-5.826-5.45c-1.829-1.989-3.619-4.204-5.313-6.576c-1.244-1.735-2.442-3.561-3.567-5.443
			c-1.272-2.13-2.459-4.332-3.533-6.575c-0.855-1.797-1.642-3.622-2.334-5.447c-0.928-2.445-1.692-4.895-2.26-7.3
			c-0.438-1.848-0.758-3.667-0.943-5.441c-0.078-0.698-0.134-1.391-0.168-2.073c-0.072-1.504-0.071-3.007,0.003-4.5
			c0.091-1.83,0.295-3.649,0.606-5.446c0.384-2.236,0.932-4.437,1.648-6.566c0.626-1.875,1.382-3.694,2.256-5.445
			c1.167-2.337,2.548-4.538,4.143-6.57c1.567-1.998,3.336-3.822,5.303-5.437c3.685-3.033,8.062-5.317,13.076-6.565
			c2.8-0.697,5.796-1.067,8.984-1.065c3.024,0.002,5.891,0.375,8.577,1.075c4.831,1.248,9.099,3.537,12.741,6.58
			c1.936,1.618,3.692,3.443,5.263,5.444c1.598,2.028,3.005,4.237,4.203,6.575c0.906,1.746,1.693,3.572,2.362,5.447
			c0.759,2.129,1.366,4.326,1.815,6.568c0.359,1.791,0.617,3.616,0.774,5.447C289.516,102.1,289.554,104.297,289.435,106.493z"/>
		<path fill="#F3E5E4" d="M364.806,176.896c-0.023,0.524-0.057,1.042-0.102,1.56c-0.113,1.295-0.289,2.59-0.537,3.88
			c-0.463,2.45-1.157,4.893-2.038,7.298c-0.677,1.841-1.461,3.66-2.341,5.445c-1.111,2.258-2.374,4.459-3.749,6.57
			c-1.229,1.892-2.548,3.71-3.923,5.438c-1.916,2.381-3.939,4.593-6.019,6.569c-2.203,2.099-4.463,3.934-6.694,5.442
			c-3.882,2.622-7.679,4.253-10.945,4.538c0,0.372,0.011,1.183,0.033,2.022c0.033,1.008,0.078,2.061,0.151,2.456
			c0.828,0.209,2.264,0.683,2.263,1.229c0,0.698-1.679,1.644-2.958,1.761c-0.085,0.006-0.169,0.011-0.248,0.011
			c-0.079,0-0.163-0.006-0.248-0.011c-1.261-0.119-2.872-1.066-2.871-1.765c0-0.558,1.38-1.035,2.237-1.238
			c0.051-0.282,0.085-1.368,0.137-2.444c0.029-0.772,0.068-1.537,0.114-1.988c-3.103-0.126-6.616-1.812-10.174-4.585
			c-1.948-1.516-3.912-3.359-5.826-5.45c-1.829-1.989-3.619-4.204-5.313-6.576c-1.244-1.735-2.442-3.561-3.567-5.443
			c-1.272-2.13-2.459-4.332-3.533-6.575c-0.855-1.797-1.642-3.622-2.334-5.447c-0.928-2.445-1.692-4.895-2.26-7.3
			c-0.438-1.848-0.758-3.667-0.943-5.441c-0.078-0.698-0.134-1.391-0.168-2.073c-0.072-1.504-0.071-3.007,0.003-4.5
			c0.091-1.83,0.295-3.649,0.606-5.446c0.384-2.236,0.932-4.437,1.648-6.566c0.626-1.875,1.382-3.694,2.256-5.445
			c1.167-2.337,2.548-4.538,4.143-6.57c1.567-1.998,3.336-3.822,5.303-5.437c3.685-3.033,8.062-5.317,13.076-6.565
			c2.8-0.697,5.796-1.067,8.984-1.065c3.024,0.002,5.891,0.375,8.577,1.075c4.831,1.248,9.099,3.537,12.741,6.58
			c1.936,1.618,3.692,3.443,5.263,5.444c1.598,2.028,3.005,4.237,4.203,6.575c0.906,1.746,1.693,3.572,2.362,5.447
			c0.759,2.129,1.366,4.326,1.815,6.568c0.359,1.791,0.617,3.616,0.774,5.447C364.888,172.503,364.926,174.7,364.806,176.896z"/>
	</g>
	<g>
		<path fill="#F4B5C1" d="M327.295,219.522c0.179-0.279,0.33-0.516,0.484-0.751c2.957-4.509,7.002-7.557,12.204-9.012
			c1.684-0.471,3.416-0.642,5.142-0.218c1.497,0.367,2.546,1.241,2.842,2.834c0.146,0.789-0.029,1.548-0.3,2.282
			c-0.447,1.212-1.2,2.227-2.102,3.136c-1.32,1.331-2.812,2.444-4.408,3.415c-3.326,2.025-6.905,3.392-10.746,4.058
			c-1.032,0.179-2.058,0.161-3.113-0.218c-0.136,0.267-0.268,0.513-0.388,0.764c-1.371,2.853-2.081,5.891-2.49,9.01
			c-0.405,3.091-0.473,6.19-0.163,9.294c0.288,2.886,0.985,5.653,2.454,8.187c0.559,0.964,1.214,1.852,2.057,2.69
			c0.167-0.221,0.31-0.391,0.432-0.574c1.052-1.573,2.168-3.095,3.524-4.426c0.947-0.929,1.967-1.758,3.18-2.325
			c0.808-0.377,1.652-0.593,2.545-0.615c2.12-0.054,3.815,1.158,4.445,3.183c0.373,1.199,0.335,2.406,0.004,3.599
			c-0.847,3.053-2.596,5.342-5.682,6.381c-2.234,0.752-4.443,0.451-6.595-0.418c-0.215-0.087-0.428-0.18-0.643-0.268
			c-0.021-0.008-0.049,0.002-0.152,0.01c-0.104,0.177-0.242,0.387-0.357,0.609c-2.338,4.505-4.067,9.227-4.97,14.229
			c-0.972,5.387-0.8,10.717,1.004,15.932c0.665,1.921,1.595,3.703,2.968,5.231c2.177,2.423,4.939,3.28,8.111,3.049
			c0.174-0.013,0.345-0.065,0.501-0.095c0.124-1.195,0.195-2.357,0.373-3.503c0.399-2.57,1.124-5.046,2.318-7.369
			c0.948-1.844,2.195-3.448,3.88-4.678c1.392-1.016,2.912-1.675,4.687-1.547c1.731,0.124,3.015,1.121,3.564,2.769
			c0.423,1.27,0.356,2.55,0.072,3.832c-0.657,2.96-2.181,5.46-4.159,7.702c-1.841,2.087-4.06,3.672-6.605,4.801
			c-0.118,0.052-0.238,0.102-0.351,0.162c-0.041,0.022-0.068,0.072-0.198,0.218c0.184,0.731,0.355,1.562,0.604,2.37
			c0.563,1.822,1.485,3.472,2.586,5.015c1.668,2.338,3.383,4.643,5.061,6.974c2.102,2.92,3.697,6.101,4.81,9.521
			c2.065,6.346,1.161,12.309-2.391,17.894c-1.991,3.131-4.738,5.455-8.031,7.131c-0.494,0.252-0.689,0.552-0.787,1.094
			c-0.694,3.867-2.19,7.438-4.218,10.777c-1.396,2.298-2.928,4.514-4.401,6.765c-0.332,0.508-0.775,0.824-1.415,0.794
			c-0.929-0.044-1.507-0.863-1.201-1.741c0.093-0.265,0.254-0.508,0.399-0.752c1.225-2.071,2.453-4.14,3.68-6.21
			c1.579-2.663,2.834-5.462,3.568-8.48c0.042-0.171,0.056-0.348,0.095-0.6c-0.76,0.086-1.467,0.189-2.179,0.241
			c-2.287,0.166-4.527-0.043-6.507-1.304c-3.038-1.936-4.812-4.709-5.175-8.321c-0.17-1.689,0.399-3.158,1.508-4.425
			c2.204-2.518,5.604-3.36,8.682-2.034c3.672,1.583,5.894,4.442,6.905,8.266c0.236,0.891,0.345,1.816,0.521,2.775
			c0.21-0.115,0.395-0.2,0.562-0.311c4.221-2.815,6.777-6.737,7.779-11.694c0.765-3.786,0.153-7.396-1.299-10.927
			c-1.06-2.577-2.408-4.981-4.045-7.227c-1.357-1.861-2.735-3.706-4.086-5.571c-1.462-2.019-2.767-4.13-3.549-6.518
			c-0.296-0.903-0.513-1.833-0.775-2.783c-0.258,0-0.511-0.011-0.763,0.002c-1.851,0.094-3.674-0.068-5.436-0.666
			c-2.975-1.009-5.162-2.991-6.805-5.615c-1.701-2.716-2.656-5.708-3.21-8.842c-1.116-6.318-0.322-12.469,1.613-18.523
			c1.066-3.336,2.443-6.539,4.1-9.623c0.11-0.204,0.216-0.409,0.339-0.64c-0.057-0.083-0.101-0.177-0.171-0.244
			c-2.622-2.491-4.131-5.593-4.947-9.065c-0.716-3.047-0.848-6.141-0.687-9.257c0.168-3.244,0.658-6.434,1.615-9.539
			c0.402-1.306,0.93-2.573,1.44-3.968c-0.254,0.101-0.473,0.189-0.692,0.275c-2.38,0.939-4.724,1.986-7.149,2.788
			c-3.077,1.018-6.255,1.097-9.424,0.394c-0.718-0.159-1.441-0.457-2.068-0.844c-2.486-1.533-2.897-4.533-0.883-6.64
			c0.668-0.699,1.495-1.282,2.333-1.775c2.285-1.345,4.811-1.998,7.416-2.368c4.503-0.64,8.813,0.024,12.935,1.938
			C327.013,219.427,327.112,219.455,327.295,219.522z M326.416,221.289c-0.229-0.121-0.353-0.202-0.487-0.255
			c-4.041-1.583-8.187-2.117-12.472-1.236c-2.063,0.424-4.059,1.051-5.839,2.207c-0.577,0.375-1.132,0.834-1.572,1.359
			c-0.724,0.865-0.535,1.93,0.414,2.543c0.402,0.259,0.885,0.446,1.356,0.536c2.698,0.515,5.368,0.296,7.961-0.557
			c3.44-1.131,6.773-2.538,10.001-4.185C325.973,221.601,326.15,221.462,326.416,221.289z M339.428,348.225
			c-0.038-0.661-0.05-1.302-0.115-1.938c-0.267-2.626-1.278-4.887-3.323-6.621c-0.818-0.693-1.722-1.235-2.782-1.478
			c-2.787-0.637-5.386,1.785-4.873,4.542c0.697,3.749,3.728,6.217,7.534,6.134C337.062,348.839,338.228,348.668,339.428,348.225z
			 M329.341,222.384c0.206,0,0.311,0.018,0.408-0.003c4.672-0.986,8.968-2.783,12.618-5.932c0.64-0.552,1.203-1.207,1.724-1.875
			c0.293-0.375,0.473-0.859,0.62-1.32c0.151-0.473,0.018-0.664-0.451-0.807c-0.244-0.074-0.508-0.141-0.758-0.125
			c-0.821,0.055-1.664,0.05-2.455,0.245c-3.686,0.905-6.657,2.983-9.163,5.774C330.828,219.519,330.048,220.877,329.341,222.384z
			 M340.539,297.438c1.12-0.481,2.008-1.095,2.848-1.775c2.486-2.014,4.354-4.478,5.293-7.567c0.214-0.705,0.318-1.472,0.316-2.21
			c-0.004-1.435-0.686-1.877-2.01-1.289c-0.672,0.299-1.299,0.748-1.863,1.226c-1.099,0.933-1.874,2.129-2.493,3.422
			c-0.989,2.067-1.596,4.25-1.92,6.514C340.636,296.283,340.602,296.813,340.539,297.438z M331.275,256.941
			c0.774,0.248,1.394,0.511,2.041,0.643c1.965,0.4,3.692-0.051,5.064-1.579c0.757-0.843,1.264-1.824,1.517-2.927
			c0.151-0.658,0.218-1.328,0.027-1.995c-0.261-0.909-0.897-1.276-1.831-1.081c-0.729,0.152-1.345,0.525-1.916,0.973
			C334.151,252.566,332.732,254.653,331.275,256.941z"/>
		<path fill="#E5AEBF" d="M250.524,154.782c-0.785,0.098-1.446,0.181-2.107,0.262c-1.359,0.167-2.714,0.425-4.093,0.238
			c-1.594-0.216-3.066-0.755-4.331-1.761c-2.174-1.73-2.292-4.406-0.296-6.34c1.044-1.012,2.316-1.559,3.749-1.684
			c3.588-0.313,6.523,1.002,8.906,3.649c0.171,0.19,0.332,0.388,0.557,0.652c0.284-0.257,0.545-0.493,0.805-0.73
			c1.598-1.458,3.337-2.71,5.357-3.516c1.865-0.744,3.789-1.026,5.777-0.547c0.05,0.012,0.102,0.02,0.151,0.035
			c3.69,1.057,4.764,5.141,2.074,7.899c-0.862,0.883-1.898,1.518-3.015,2.018c-2.062,0.924-4.22,1.428-6.484,1.246
			c-0.892-0.072-1.768-0.346-2.649-0.541c-0.245-0.054-0.48-0.157-0.765-0.252c-0.554,3.015-0.705,5.913,1.284,8.49
			c0.458,0.594,0.941,1.169,1.404,1.76c0.574,0.733,1.154,1.463,1.705,2.214c1.645,2.242,2.575,4.766,2.888,7.52
			c0.163,1.439,0.321,2.88,0.432,4.324c0.137,1.774,0.557,3.463,1.296,5.084c0.515,1.128,0.991,2.276,1.438,3.433
			c1.158,2.995,1.429,6.072,0.793,9.227c-0.531,2.636-1.059,5.273-1.55,7.917c-0.374,2.016-0.573,4.046-0.24,6.097
			c0.452,2.785,1.654,5.139,3.836,6.983c1.195,1.01,2.604,1.327,4.089,1.472c0.195,0.019,0.401-0.075,0.602-0.12
			c0.509-0.114,0.932,0.045,1.229,0.457c0.301,0.418,0.29,0.879,0.03,1.316c-0.385,0.648-1.016,0.914-1.717,0.853
			c-2.236-0.196-4.388-0.625-6.216-2.106c-2.863-2.321-4.435-5.321-4.959-8.931c-0.348-2.398-0.031-4.752,0.405-7.097
			c0.435-2.339,0.92-4.668,1.388-7.001c0.536-2.673,0.425-5.303-0.534-7.871c-0.479-1.283-0.978-2.56-1.507-3.824
			c-0.562-1.344-1.016-2.715-1.178-4.166c-0.115-1.028-0.182-2.061-0.28-3.091c-0.113-1.185-0.211-2.371-0.361-3.551
			c-0.266-2.098-1.086-3.986-2.306-5.698c-0.751-1.053-1.552-2.07-2.334-3.101c-0.915-1.205-1.679-2.494-2.061-3.969
			c-0.187-0.722-0.288-1.466-0.443-2.276c-0.133,0.205-0.253,0.359-0.342,0.53c-0.755,1.451-1.409,2.94-1.683,4.567
			c-0.298,1.763-0.114,3.467,0.769,5.041c0.48,0.855,1.051,1.659,1.591,2.48c1.15,1.751,2.383,3.453,3.433,5.261
			c0.708,1.22,1.246,2.559,1.711,3.896c0.737,2.12,0.632,4.275-0.052,6.407c-0.493,1.538-1.224,2.961-2.061,4.335
			c-0.808,1.326-1.648,2.632-2.429,3.974c-1.284,2.208-2.213,4.555-2.657,7.083c-0.418,2.386-0.214,4.706,0.854,6.893
			c0.634,1.299,1.361,2.557,2.108,3.796c1.23,2.041,2.478,4.072,3.252,6.34c0.341,1,0.633,2.026,0.832,3.063
			c0.39,2.026,0.003,3.989-0.842,5.826c-0.842,1.829-1.798,3.611-2.786,5.367c-1.092,1.941-2.151,3.891-2.975,5.966
			c-0.955,2.406-1.099,4.838-0.251,7.283c0.524,1.512,1.159,2.986,1.765,4.469c0.498,1.221,1.033,2.427,1.54,3.644
			c1.252,3.004,1.35,6.062,0.527,9.2c-0.612,2.336-1.505,4.565-2.343,6.819c-1.136,3.056-2.249,6.126-2.758,9.362
			c-0.224,1.427-0.32,2.88-0.377,4.325c-0.068,1.706-0.037,3.415-0.037,5.123c0,0.791-0.351,1.299-1.026,1.425
			c-0.666,0.124-1.332-0.288-1.529-1.016c-0.114-0.419-0.162-0.868-0.163-1.304c-0.008-2.277-0.045-4.557,0.032-6.832
			c0.088-2.605,0.732-5.119,1.544-7.581c0.834-2.529,1.759-5.028,2.638-7.543c0.607-1.737,1.101-3.499,1.344-5.332
			c0.205-1.549,0.088-3.067-0.467-4.509c-0.76-1.978-1.614-3.92-2.45-5.868c-0.797-1.859-1.513-3.739-1.82-5.752
			c-0.318-2.089-0.124-4.127,0.564-6.12c0.857-2.481,2.072-4.789,3.37-7.062c0.897-1.571,1.762-3.166,2.527-4.803
			c0.41-0.878,0.664-1.852,0.837-2.81c0.21-1.16-0.011-2.314-0.363-3.442c-0.63-2.015-1.566-3.881-2.667-5.674
			c-0.69-1.124-1.368-2.257-2.041-3.392c-2.386-4.026-2.775-8.264-1.373-12.706c0.721-2.283,1.696-4.444,2.944-6.484
			c0.729-1.192,1.503-2.358,2.19-3.574c0.52-0.92,0.987-1.878,1.385-2.857c0.794-1.954,0.761-3.931,0.021-5.908
			c-0.713-1.905-1.735-3.641-2.874-5.311c-0.787-1.155-1.624-2.274-2.422-3.422c-0.952-1.369-1.729-2.825-2.068-4.478
			c-0.41-2.002-0.214-3.962,0.404-5.895c0.555-1.735,1.358-3.354,2.287-4.914c0.41-0.689,0.824-1.376,1.228-2.069
			C250.259,155.355,250.357,155.122,250.524,154.782z M251.436,151.21c-0.584-0.564-1.148-1.209-1.811-1.727
			c-1.526-1.194-3.258-1.879-5.228-1.809c-1.061,0.038-2.038,0.339-2.804,1.122c-0.929,0.95-0.851,2.001,0.254,2.745
			c1.119,0.753,2.378,1.177,3.732,1.049c1.643-0.156,3.275-0.425,4.912-0.643C250.901,151.891,251.215,151.708,251.436,151.21z
			 M254.655,152.35c0.491,0.225,0.844,0.437,1.227,0.555c3.1,0.96,5.858,0.147,8.396-1.686c0.301-0.218,0.583-0.55,0.721-0.891
			c0.537-1.323,0.193-2.062-1.04-2.386c-0.297-0.078-0.607-0.13-0.914-0.144c-0.919-0.042-1.804,0.152-2.646,0.501
			C258.24,149.197,256.421,150.582,254.655,152.35z"/>
		<path fill="#E06E82" d="M184.291,285.264c-0.846,0.662-1.498,1.214-2.192,1.708c-1.554,1.106-3.239,1.926-5.134,2.278
			c-5.138,0.954-8.421-2.574-9.312-6.02c-0.844-3.266,0.443-6.5,3.302-8.358c3.068-1.995,8.501-2.179,11.801,0.411
			c0.946,0.743,1.744,1.615,2.421,2.604c0.141,0.207,0.291,0.408,0.491,0.687c0.191-0.295,0.348-0.521,0.489-0.757
			c2.868-4.826,4.778-10.024,6.013-15.484c0.9-3.976,1.468-7.987,1.265-12.079c-0.178-3.585-1.055-6.997-2.578-10.242
			c-0.78-1.662-1.611-3.3-2.408-4.954c-0.924-1.919-1.686-3.892-1.922-6.031c-0.013-0.122-0.072-0.24-0.132-0.428
			c-0.453,0.219-0.869,0.418-1.282,0.622c-1.854,0.916-3.7,1.851-5.565,2.746c-1.331,0.639-2.711,1.159-4.173,1.418
			c-1.053,0.187-2.113,0.219-3.163,0.002c-2.518-0.522-3.688-2.17-3.268-4.837c0.325-2.064,1.293-3.821,2.908-5.164
			c4.027-3.35,8.505-3.848,13.308-1.982c0.737,0.287,1.4,0.764,2.175,1.196c0.14-0.191,0.305-0.41,0.464-0.634
			c1.693-2.389,3.701-4.454,6.186-6.031c1.719-1.09,3.544-1.929,5.564-2.272c0.923-0.157,1.857-0.177,2.771,0.081
			c1.992,0.563,2.983,2.295,2.354,4.27c-0.255,0.8-0.643,1.597-1.139,2.271c-0.638,0.868-1.381,1.686-2.191,2.397
			c-2.768,2.432-5.838,4.372-9.415,5.393c-0.989,0.282-2.016,0.43-3.118,0.659c0.118,0.496,0.177,1.009,0.361,1.472
			c0.534,1.344,1.072,2.69,1.695,3.993c0.725,1.516,1.553,2.982,2.317,4.479c2.666,5.226,3.688,10.768,3.247,16.612
			c-0.546,7.238-2.468,14.089-5.67,20.589c-0.973,1.975-2.081,3.874-3.359,5.67c-0.179,0.252-0.337,0.473-0.246,0.842
			c0.706,2.877,0.359,5.697-0.504,8.488c-0.967,3.128-2.389,6.057-3.867,8.963c-1.922,3.781-3.888,7.54-5.736,11.357
			c-1.558,3.217-2.809,6.564-3.558,10.073c-0.648,3.036-0.815,6.095-0.293,9.175c0.486,2.872,1.659,5.425,3.506,7.672
			c0.969,1.179,1.947,2.352,2.907,3.539c0.242,0.299,0.451,0.632,0.634,0.971c0.247,0.46,0.171,0.912-0.178,1.292
			c-0.341,0.372-0.79,0.536-1.267,0.36c-0.328-0.121-0.664-0.32-0.902-0.573c-1.791-1.904-3.573-3.822-5.014-6.014
			c-2.047-3.115-2.925-6.59-3.06-10.28c-0.157-4.286,0.792-8.37,2.242-12.366c1.531-4.217,3.525-8.22,5.6-12.187
			c1.678-3.208,3.428-6.381,4.801-9.739c0.795-1.944,1.477-3.923,1.718-6.024C184.249,286.546,184.251,285.986,184.291,285.264z
			 M183.543,281.57c-0.727-1.674-1.638-3.15-3.141-4.18c-0.338-0.232-0.705-0.443-1.088-0.585c-2.029-0.753-4.059-0.718-6.036,0.16
			c-1.981,0.88-3.049,2.818-2.822,4.97c0.229,2.168,1.865,4.136,3.847,4.576c1.204,0.267,2.366,0.019,3.484-0.437
			C180.097,285.132,181.886,283.516,183.543,281.57z M186.245,224.399c-0.112-0.07-0.199-0.126-0.286-0.18
			c-0.219-0.137-0.433-0.283-0.658-0.41c-1.549-0.871-3.236-1.224-4.99-1.255c-2.845-0.049-5.257,1.003-7.221,3.036
			c-1.005,1.04-1.533,2.327-1.552,3.789c-0.012,0.91,0.293,1.322,1.193,1.411c0.71,0.07,1.451,0.045,2.154-0.079
			c1.464-0.258,2.796-0.915,4.115-1.575c1.896-0.949,3.77-1.944,5.68-2.864c0.622-0.3,1.089-0.664,1.312-1.321
			C186.039,224.805,186.118,224.67,186.245,224.399z M188.946,225.949c0.121,0.021,0.149,0.035,0.17,0.028
			c0.442-0.142,0.88-0.293,1.324-0.428c3.429-1.045,6.383-2.906,9.001-5.315c0.602-0.554,1.103-1.227,1.603-1.882
			c0.23-0.3,0.379-0.676,0.505-1.039c0.18-0.516,0.039-0.726-0.511-0.76c-0.357-0.023-0.724,0.006-1.078,0.065
			c-1.342,0.225-2.575,0.746-3.743,1.43c-3.124,1.829-5.381,4.476-7.143,7.587C189.025,225.723,188.997,225.822,188.946,225.949z"/>
		<path fill="#C04D66" d="M113.901,199.485c-0.391-0.537-0.707-1.004-1.057-1.445c-0.53-0.669-1.109-1.3-1.623-1.981
			c-1.901-2.517-2.219-5.213-0.904-8.102c0.53-1.164,1.208-2.225,2.014-3.211c0.506-0.619,1.012-1.237,1.602-1.957
			c-0.29-0.021-0.476-0.06-0.657-0.045c-1.873,0.161-3.717,0.034-5.536-0.466c-1.872-0.515-3.479-1.447-4.741-2.934
			c-0.68-0.801-1.167-1.702-1.336-2.758c-0.221-1.38,0.157-2.577,1.156-3.536c1.728-1.66,3.792-1.999,6.048-1.394
			c3.389,0.909,5.844,2.998,7.539,6.031c0.076,0.135,0.145,0.275,0.219,0.411c0.012,0.022,0.036,0.037,0.125,0.127
			c0.183-0.134,0.378-0.28,0.577-0.421c2.142-1.521,4.471-2.582,7.106-2.898c1.043-0.125,2.069-0.05,3.076,0.228
			c2.568,0.709,3.948,2.805,3.656,5.46c-0.629,5.716-6.67,8.142-10.889,6.398c-1.285-0.531-2.424-1.276-3.362-2.31
			c-0.103-0.113-0.162-0.266-0.281-0.467c-1.328,1.773-2.756,3.242-3.526,5.182c-0.655,1.649-0.525,3.193,0.473,4.647
			c0.468,0.681,1.018,1.305,1.505,1.974c0.486,0.667,1.01,1.321,1.395,2.046c0.744,1.401,0.448,2.739-0.765,3.754
			c-0.435,0.363-0.92,0.67-1.396,0.981c-1.505,0.982-2.879,2.112-4.005,3.522c-0.815,1.02-1.451,2.139-1.838,3.391
			c-0.609,1.972-0.362,3.822,1.005,5.39c0.93,1.068,1.977,2.044,3.038,2.988c1.662,1.479,3.406,2.866,5.068,4.345
			c2.044,1.818,3.827,3.853,4.978,6.379c0.77,1.689,1.288,3.439,1.329,5.305c0.052,2.398-0.766,4.455-2.456,6.165
			c-1.175,1.188-2.555,2.101-3.966,2.972c-0.88,0.543-1.794,1.036-2.649,1.617c-0.724,0.492-1.417,1.043-2.06,1.637
			c-0.411,0.38-0.753,0.858-1.044,1.341c-0.844,1.401-0.736,2.317,0.404,3.487c0.812,0.834,1.702,1.594,2.488,2.451
			c0.661,0.72,1.282,1.493,1.815,2.311c1.283,1.97,1.203,4.015,0.11,6.032c-0.405,0.747-0.95,1.417-1.401,2.141
			c-0.476,0.767-0.958,1.536-1.361,2.342c-0.624,1.246-0.55,2.522,0.119,3.724c0.451,0.811,0.988,1.577,1.528,2.333
			c0.916,1.285,1.925,2.507,2.783,3.829c0.757,1.166,1.433,2.398,2.02,3.659c1.098,2.362,1.032,4.776-0.001,7.145
			c-0.443,1.016-0.98,1.996-1.531,2.96c-1.13,1.976-2.312,3.924-3.101,6.073c-0.873,2.377-1.451,4.806-1.18,7.365
			c0.151,1.425,0.483,2.81,1.178,4.074c0.635,1.155,1.335,2.275,2.002,3.413c0.222,0.379,0.465,0.751,0.637,1.153
			c0.302,0.705,0.086,1.356-0.506,1.679c-0.573,0.313-1.291,0.145-1.733-0.412c-0.096-0.121-0.173-0.258-0.255-0.389
			c-0.685-1.097-1.354-2.204-2.055-3.292c-2.14-3.323-2.744-6.917-1.977-10.776c0.555-2.795,1.608-5.395,2.989-7.872
			c0.617-1.107,1.267-2.196,1.882-3.304c0.579-1.042,1.092-2.109,1.305-3.302c0.187-1.051,0.071-2.058-0.292-3.05
			c-0.456-1.248-1.098-2.4-1.861-3.481c-0.851-1.204-1.753-2.372-2.604-3.576c-0.655-0.929-1.335-1.851-1.878-2.845
			c-1.113-2.034-1.211-4.158-0.194-6.26c0.459-0.949,1.055-1.834,1.613-2.733c0.381-0.615,0.842-1.182,1.2-1.809
			c0.683-1.195,0.752-2.412-0.083-3.576c-0.391-0.545-0.804-1.08-1.263-1.566c-0.64-0.676-1.344-1.29-1.999-1.952
			c-0.472-0.477-0.948-0.96-1.356-1.491c-1.06-1.379-1.258-2.912-0.7-4.549c0.418-1.224,1.141-2.256,2.024-3.184
			c0.953-1.001,2.065-1.799,3.236-2.522c1.079-0.665,2.162-1.325,3.222-2.018c0.54-0.353,1.046-0.761,1.548-1.168
			c1.925-1.56,2.518-3.599,2.075-5.974c-0.402-2.157-1.365-4.058-2.754-5.746c-1.189-1.446-2.58-2.684-4.006-3.887
			c-1.345-1.135-2.713-2.244-4.022-3.419c-0.941-0.845-1.868-1.723-2.686-2.685c-2.361-2.778-2.708-5.889-1.312-9.214
			c1.22-2.905,3.285-5.113,5.827-6.91c0.486-0.343,0.995-0.652,1.489-0.985C113.339,199.916,113.558,199.74,113.901,199.485z
			 M115.395,179.641c-1.799-3.222-4.153-5.426-7.723-6.05c-0.448-0.078-0.949-0.087-1.382,0.03
			c-2.264,0.616-2.806,2.311-1.399,4.019c0.917,1.113,2.12,1.777,3.503,2.17c2.015,0.572,4.041,0.487,6.075,0.188
			C114.753,179.956,115.018,179.791,115.395,179.641z M117.973,180.946c0.784,1.715,2.026,2.771,3.665,3.397
			c2.505,0.957,6.486-0.712,6.453-4.633c-0.008-0.908-0.375-1.491-1.248-1.743c-0.583-0.168-1.226-0.263-1.826-0.211
			C122.319,177.991,120.067,179.241,117.973,180.946z"/>
	</g>
	<g>
		<g>
			<path fill="#E06E82" d="M280.761,296.584c0.13-0.309,0.222-0.513,0.303-0.722c0.539-1.384,1.222-2.693,2.054-3.923
				c0.73-1.081,1.616-2.008,2.694-2.754c3.485-2.412,7.016-0.755,8.462,2.452c0.654,1.45,0.951,2.995,0.99,4.584
				c0.061,2.473-0.209,4.924-0.477,7.377c-0.525,4.812-1.883,9.427-3.272,14.035c-1.518,5.038-3.265,9.994-5.396,14.809
				c-0.572,1.293-1.213,2.542-2.084,3.664c-0.58,0.747-1.295,1.209-2.284,1.161c-0.725-0.035-1.345-0.328-1.789-0.864
				c-0.459-0.555-0.904-1.158-1.191-1.812c-0.878-1.997-1.73-4.009-2.496-6.051c-2.767-7.367-5.121-14.865-7.003-22.507
				c-0.544-2.211-1.013-4.441-1.096-6.73c-0.06-1.657,0.049-3.297,0.721-4.836c0.288-0.66,0.648-1.312,1.089-1.878
				c1.271-1.632,2.955-2.146,4.956-1.662c0.93,0.225,1.757,0.655,2.501,1.248c1.287,1.026,2.322,2.255,2.992,3.772
				C280.516,296.13,280.617,296.304,280.761,296.584z M281.928,332.798c0.219-0.448,0.37-0.739,0.506-1.037
				c1.798-3.909,3.302-7.934,4.596-12.032c1.688-5.348,3.431-10.687,4.077-16.299c0.26-2.264,0.508-4.528,0.498-6.811
				c-0.005-1.138-0.169-2.254-0.586-3.311c-0.176-0.447-0.445-0.885-0.768-1.241c-0.63-0.695-1.194-0.735-2.009-0.25
				c-0.909,0.541-1.59,1.309-2.161,2.185c-0.76,1.167-1.399,2.399-1.802,3.731c-0.414,1.368-0.735,2.765-1.117,4.143
				c-0.086,0.311-0.213,0.63-0.398,0.89c-0.405,0.57-0.998,0.756-1.677,0.659c-0.661-0.094-1.129-0.457-1.345-1.093
				c-0.165-0.486-0.303-0.983-0.426-1.481c-0.332-1.349-0.748-2.666-1.386-3.907c-0.559-1.087-1.324-2.006-2.339-2.679
				c-0.437-0.29-0.962-0.476-1.473-0.617c-0.569-0.157-1.055,0.078-1.437,0.529c-0.482,0.568-0.782,1.227-0.957,1.941
				c-0.266,1.082-0.316,2.179-0.215,3.289c0.199,2.185,0.683,4.315,1.295,6.411c1.156,3.965,2.357,7.918,3.583,11.863
				c1.505,4.844,3.205,9.62,5.169,14.299C281.655,332.214,281.766,332.442,281.928,332.798z"/>
			<path fill="#C04D66" d="M323.644,76.937c0.13-0.309,0.222-0.513,0.303-0.722c0.539-1.384,1.222-2.693,2.054-3.923
				c0.73-1.08,1.616-2.008,2.694-2.754c3.485-2.412,7.016-0.755,8.462,2.452c0.654,1.45,0.951,2.995,0.99,4.584
				c0.061,2.473-0.209,4.924-0.477,7.377c-0.525,4.812-1.883,9.427-3.272,14.035c-1.518,5.038-3.265,9.994-5.396,14.809
				c-0.572,1.293-1.213,2.542-2.084,3.664c-0.58,0.747-1.295,1.209-2.284,1.161c-0.725-0.035-1.345-0.328-1.789-0.864
				c-0.459-0.555-0.904-1.158-1.191-1.812c-0.878-1.997-1.73-4.009-2.496-6.051c-2.767-7.367-5.121-14.865-7.003-22.507
				c-0.544-2.211-1.013-4.441-1.096-6.73c-0.06-1.657,0.049-3.297,0.721-4.836c0.288-0.66,0.648-1.312,1.089-1.879
				c1.271-1.632,2.955-2.146,4.956-1.662c0.93,0.225,1.757,0.655,2.501,1.248c1.287,1.026,2.322,2.255,2.992,3.772
				C323.399,76.482,323.5,76.656,323.644,76.937z M324.811,113.15c0.22-0.448,0.37-0.739,0.506-1.037
				c1.798-3.909,3.302-7.934,4.596-12.032c1.688-5.348,3.431-10.687,4.077-16.299c0.26-2.264,0.508-4.528,0.498-6.811
				c-0.005-1.138-0.169-2.254-0.586-3.311c-0.176-0.447-0.445-0.885-0.768-1.241c-0.63-0.695-1.194-0.735-2.009-0.25
				c-0.909,0.541-1.59,1.309-2.161,2.185c-0.76,1.167-1.399,2.399-1.802,3.731c-0.414,1.368-0.735,2.765-1.117,4.143
				c-0.086,0.311-0.213,0.63-0.398,0.89c-0.405,0.57-0.998,0.756-1.677,0.659c-0.661-0.094-1.129-0.457-1.345-1.093
				c-0.165-0.486-0.303-0.983-0.426-1.481c-0.332-1.349-0.748-2.666-1.386-3.907c-0.559-1.088-1.324-2.006-2.339-2.679
				c-0.437-0.29-0.962-0.476-1.473-0.617c-0.569-0.157-1.055,0.078-1.437,0.529c-0.482,0.568-0.782,1.227-0.957,1.941
				c-0.266,1.082-0.316,2.179-0.215,3.289c0.198,2.185,0.683,4.315,1.295,6.411c1.156,3.965,2.357,7.918,3.583,11.863
				c1.505,4.844,3.205,9.62,5.169,14.299C324.538,112.566,324.649,112.794,324.811,113.15z"/>
		</g>
		<g>
			<path fill="#E5AEBF" d="M82.519,270.053c-0.899-1.38-1.641-2.698-2.537-3.853c-1.689-2.177-3.782-3.502-6.321-3.612
				c-2.066-0.089-3.68,0.9-4.841,2.888c-1.785,3.059-1.983,6.466-1.405,10.008c0.986,6.038,3.567,11.121,7.22,15.471
				c1.051,1.252,2.356,2.241,3.622,3.211c1.862,1.426,3.795,1.234,5.697,0.134c0.236-0.137,0.468-0.291,0.684-0.467
				c5.062-4.121,9.114-9.217,11.258-16.149c0.732-2.366,1.127-4.795,0.759-7.332c-0.111-0.765-0.271-1.54-0.525-2.256
				c-1.653-4.657-5.674-6.227-9.337-3.686c-1.156,0.802-2.126,1.826-2.866,3.144C83.472,268.366,83.013,269.176,82.519,270.053z"/>
			<path fill="#F4B5C1" d="M180.913,93.477c-0.78-1.026-1.421-2.008-2.199-2.866c-1.467-1.618-3.293-2.595-5.519-2.66
				c-1.811-0.053-3.234,0.698-4.265,2.194c-1.586,2.301-1.783,4.852-1.3,7.498c0.824,4.512,3.053,8.298,6.227,11.529
				c0.914,0.93,2.051,1.661,3.155,2.378c1.623,1.054,3.32,0.897,4.996,0.062c0.208-0.104,0.412-0.221,0.603-0.354
				c4.467-3.118,8.055-6.959,9.983-12.16c0.658-1.775,1.021-3.595,0.715-5.492c-0.092-0.571-0.227-1.151-0.445-1.685
				c-1.418-3.473-4.934-4.622-8.164-2.695c-1.019,0.608-1.877,1.381-2.535,2.372C181.76,92.208,181.353,92.818,180.913,93.477z"/>
		</g>
	</g>
</g>
</svg>
